<svg width="129" height="30" viewBox="0 0 129 30" fill="none" xmlns="http://www.w3.org/2000/svg">
<path d="M31.9707 23.073C31.8303 23.191 31.6673 23.309 31.4706 23.4326C31.2796 23.5562 31.0492 23.6629 30.7795 23.7584C30.5098 23.8539 30.1951 23.9326 29.8355 23.9944C29.4758 24.0562 29.0544 24.0899 28.5768 24.0899C28.0542 24.0899 27.5091 24.0449 26.9472 23.9494C26.3853 23.8539 25.8402 23.6966 25.312 23.4663C24.7838 23.2416 24.2781 22.9326 23.8004 22.5505C23.3228 22.1629 22.907 21.6854 22.5473 21.1067C22.1877 20.5281 21.9068 19.8483 21.6988 19.0618C21.4909 18.2753 21.3842 17.3539 21.3842 16.309V11.9213C21.1369 11.4887 20.929 10.9887 20.7548 10.4269C20.5806 9.85953 20.4907 9.21908 20.4907 8.49436C20.4907 8.17976 20.5132 7.85391 20.5525 7.51683C20.5919 7.17976 20.6537 6.84268 20.738 6.51122C20.8223 6.17976 20.9234 5.85391 21.0526 5.53931C21.1819 5.2247 21.3392 4.93256 21.5247 4.6629H25.3738C26.0481 4.6629 26.6718 4.74155 27.245 4.89886C27.8182 5.05616 28.307 5.30335 28.7172 5.64043C29.1274 5.97751 29.4421 6.40447 29.6725 6.92695C29.8973 7.4438 30.0153 8.0674 30.0153 8.79211V14.4607C30.0153 15.1123 30.0771 15.5618 30.2007 15.7977C30.3243 16.0393 30.476 16.1573 30.6671 16.1573C30.7851 16.1573 30.875 16.1404 30.9368 16.1067C30.9986 16.073 31.0604 16.0337 31.1222 15.9831C31.0661 15.7865 31.0211 15.5449 30.993 15.264C30.9649 14.9831 30.9481 14.6236 30.9481 14.1798V5.53931C31.1672 5.41009 31.4201 5.28088 31.6898 5.14605C31.9651 5.01122 32.2798 4.89324 32.6451 4.7865C33.0103 4.67976 33.4093 4.59549 33.8588 4.52245C34.3083 4.45504 34.8253 4.41571 35.4097 4.41571C36.4268 4.41571 37.2978 4.55054 38.0339 4.82582C38.77 5.1011 39.3207 5.4438 39.6971 5.84829V14.9607C39.6971 15.764 39.7871 16.455 39.9612 17.0337C40.1354 17.6123 40.467 18.0505 40.9558 18.3539C40.9671 18.4494 40.9727 18.5618 40.9727 18.6966V19C40.9727 19.8876 40.8547 20.6517 40.6131 21.2921C40.3715 21.9326 40.0455 22.4607 39.6241 22.8764C39.2027 23.2921 38.7082 23.5955 38.1294 23.7921C37.5506 23.9887 36.9269 24.0899 36.247 24.0899C35.3816 24.0899 34.5837 23.8932 33.8419 23.4944C33.1002 23.0955 32.5439 22.5 32.173 21.691C31.7741 21.691 31.5774 21.882 31.5774 22.2696C31.5774 22.3989 31.6111 22.5337 31.6842 22.6741C31.7572 22.8146 31.8527 22.9494 31.982 23.0786L31.9707 23.073Z" fill="white"/>
<path d="M43.2375 13.3483C43.2375 13 43.5185 12.7191 43.8669 12.7191H44.322C44.6255 12.7191 44.8446 12.6685 44.9851 12.5618C45.1256 12.4551 45.193 12.3146 45.193 12.1405C45.193 12.073 45.1818 12 45.1593 11.9326H41.726C41.4281 11.9326 41.1753 11.7247 41.1078 11.4326C41.0404 11.1405 40.9898 10.8539 40.9505 10.5393C40.8887 10.0337 40.855 9.51686 40.855 8.98877C40.855 8.65169 40.8775 8.26405 40.9168 7.82585C40.9449 7.51686 40.9842 7.24719 41.0236 7.01124C41.0573 6.83708 41.1528 6.69101 41.3045 6.59551C41.7203 6.33146 42.1305 6.05056 42.5407 5.75281C42.9509 5.45506 43.3499 5.16292 43.6927 4.91011C43.7826 4.8427 43.85 4.75843 43.895 4.65169C43.9849 4.43259 44.086 4.16292 44.1984 3.84832C44.3389 3.44944 44.4794 3.03933 44.6198 2.60674C44.7603 2.17416 44.8952 1.75843 45.0244 1.35394C45.1031 1.10674 45.1761 0.882025 45.2436 0.685396C45.3166 0.471913 45.4964 0.314609 45.7156 0.269666C46.0303 0.207868 46.4067 0.151688 46.845 0.101126C47.4632 0.0337106 48.0925 -0.00561523 48.7331 -0.00561523C49.2332 -0.00561523 49.7389 0.0224747 50.2447 0.0842724C50.6043 0.123598 50.992 0.185396 51.4078 0.264048C51.7057 0.320227 51.9192 0.584272 51.9192 0.882025V4.02247C51.9192 4.37079 52.2001 4.65169 52.5485 4.65169H56.8135C57.0327 4.65169 57.2462 4.76405 57.3586 4.95506C57.6058 5.38764 57.7969 5.85955 57.9317 6.37641C58.1003 7.01124 58.1846 7.64607 58.1846 8.27528C58.1846 8.87079 58.1003 9.5 57.9317 10.1742C57.7969 10.7135 57.6058 11.1966 57.3586 11.6236C57.2518 11.809 57.0439 11.9157 56.8247 11.9157H53.0767C52.7283 11.9157 52.4474 12.1966 52.4474 12.5449V14.5562C52.4474 15.3596 52.6103 15.9382 52.9363 16.2809C53.2622 16.6236 53.7229 16.7978 54.3186 16.7978H54.5771C54.8693 16.7978 55.1221 16.9944 55.1896 17.2753C55.2345 17.4831 55.2851 17.6966 55.3244 17.9157C55.3975 18.3146 55.4368 18.7079 55.4368 19.1067C55.4368 20.7303 54.9311 21.9663 53.914 22.8146C52.8969 23.6685 51.4528 24.0899 49.576 24.0899C48.632 24.0899 47.7722 23.9607 46.9968 23.7022C46.2213 23.4438 45.5526 23.0562 44.9963 22.5281C44.4344 22.0056 44.0074 21.3483 43.7039 20.5618C43.4005 19.7753 43.2488 18.8427 43.2488 17.7697V13.3427L43.2375 13.3483Z" fill="white"/>
<path d="M107.077 9.98879C106.891 9.98879 106.712 9.98879 106.537 10C106.363 10.0056 106.206 10.0281 106.071 10.0674C105.936 10.1068 105.829 10.1686 105.745 10.2528C105.661 10.3371 105.622 10.4495 105.622 10.6012V10.6967C105.622 10.736 105.627 10.7697 105.638 10.7922C105.835 10.7809 106.004 10.7753 106.144 10.7753H106.566C107.15 10.7753 107.751 10.8203 108.369 10.9045C108.987 10.9944 109.583 11.1349 110.162 11.3315C110.741 11.5281 111.286 11.7922 111.797 12.118C112.308 12.4438 112.758 12.8427 113.134 13.309C113.511 13.7753 113.814 14.3259 114.033 14.9551C114.253 15.5843 114.365 16.3034 114.365 17.1068C114.365 18.3203 114.146 19.3764 113.708 20.2809C113.269 21.1854 112.651 21.9326 111.842 22.5281C111.038 23.1236 110.066 23.5674 108.937 23.8652C107.807 24.1629 106.543 24.309 105.155 24.309C103.874 24.309 102.7 24.1967 101.632 23.9776C100.564 23.7585 99.6539 23.4214 98.8953 22.9832C98.1367 22.5394 97.5467 21.9832 97.1309 21.3146C96.7095 20.6461 96.5016 19.854 96.5016 18.9438C96.5016 18.6068 96.5409 18.2809 96.6252 17.9719C96.7038 17.6629 96.8106 17.3821 96.9399 17.1236C97.0691 16.8652 97.2152 16.6405 97.3782 16.4495C97.5411 16.2585 97.7041 16.1068 97.867 16.0056C98.148 16.2416 98.5132 16.4776 98.9628 16.7135C99.4123 16.9551 99.9237 17.1629 100.502 17.354C101.081 17.545 101.705 17.691 102.385 17.809C103.059 17.927 103.778 17.9832 104.537 17.9832C104.885 17.9832 105.11 17.9382 105.211 17.8427C105.312 17.7472 105.357 17.6236 105.357 17.4551C105.357 17.3596 105.341 17.2697 105.307 17.1742C105.178 17.1854 105.082 17.191 105.009 17.191H104.818C103.672 17.191 102.593 17.0731 101.57 16.8427C100.547 16.6124 99.6539 16.2416 98.8841 15.7304C98.1143 15.2247 97.5018 14.5787 97.0466 13.7978C96.5915 13.0169 96.3667 12.0731 96.3667 10.9663C96.3667 10.045 96.5521 9.16857 96.9286 8.33149C97.2995 7.50003 97.867 6.76407 98.6256 6.13486C99.3842 5.50565 100.334 5.00565 101.48 4.62924C102.621 4.25846 103.964 4.06744 105.504 4.06744C106.262 4.06744 106.993 4.11239 107.689 4.19666C108.392 4.28654 109.044 4.40452 109.656 4.55621C110.269 4.70789 110.836 4.88767 111.353 5.08992C111.87 5.29216 112.325 5.50565 112.707 5.73037C112.825 5.97756 112.91 6.3034 112.96 6.70789C113.011 7.11801 113.039 7.49441 113.039 7.84272C113.039 8.6461 112.921 9.32025 112.69 9.85396C112.454 10.3933 112.185 10.809 111.87 11.1124C111.6 10.9607 111.291 10.8203 110.943 10.6854C110.595 10.5506 110.212 10.4326 109.797 10.3259C109.381 10.2191 108.942 10.1349 108.487 10.0731C108.027 10.0113 107.555 9.97756 107.077 9.97756V9.98879Z" fill="white"/>
<path d="M116.298 13.2697C116.298 12.9607 116.545 12.7135 116.854 12.7135H117.383C117.686 12.7135 117.905 12.6629 118.046 12.5562C118.186 12.4494 118.254 12.309 118.254 12.1348C118.254 12.0674 118.242 11.9944 118.22 11.927H114.725C114.472 11.927 114.247 11.7641 114.191 11.5169C114.118 11.2079 114.056 10.882 114.011 10.5337C113.949 10.0281 113.916 9.51124 113.916 8.98315C113.916 8.64607 113.938 8.25843 113.977 7.82023C114.005 7.48877 114.05 7.20225 114.095 6.94944C114.123 6.80338 114.213 6.67978 114.337 6.60113C114.764 6.33147 115.185 6.04495 115.601 5.74158C116.017 5.43821 116.422 5.14045 116.77 4.88765C116.849 4.82585 116.911 4.75281 116.944 4.66293C117.034 4.43821 117.141 4.16293 117.253 3.83708C117.394 3.43821 117.534 3.0281 117.675 2.59551C117.815 2.16293 117.95 1.7472 118.079 1.3427C118.164 1.07866 118.242 0.842702 118.31 0.634837C118.372 0.443826 118.529 0.308994 118.726 0.269668C119.051 0.207871 119.439 0.146073 119.894 0.0955111C120.512 0.0280954 121.142 -0.0112305 121.782 -0.0112305C122.283 -0.0112305 122.788 0.0168594 123.294 0.0786572C123.676 0.123601 124.081 0.185399 124.513 0.269668C124.772 0.32023 124.963 0.550567 124.963 0.814612V4.08989C124.963 4.39888 125.21 4.64607 125.519 4.64607H127.677C127.874 4.64607 128.059 4.74158 128.155 4.91012C128.413 5.35394 128.61 5.83708 128.75 6.36517C128.919 7.00001 129.003 7.63484 129.003 8.26405C129.003 8.85956 128.919 9.48877 128.75 10.1629C128.61 10.7191 128.413 11.2135 128.155 11.6461C128.059 11.809 127.874 11.9045 127.683 11.9045H126.042C125.733 11.9045 125.485 12.1517 125.485 12.4607V14.5449C125.485 15.3483 125.648 15.927 125.974 16.2697C126.3 16.6124 126.761 16.7865 127.357 16.7865H127.677C127.93 16.7865 128.16 16.9551 128.216 17.2079C128.267 17.4326 128.318 17.6685 128.362 17.9101C128.436 18.309 128.475 18.7023 128.475 19.1011C128.475 20.7247 127.969 21.9607 126.952 22.809C125.935 23.6629 124.491 24.0843 122.614 24.0843C121.67 24.0843 120.81 23.9551 120.035 23.6966C119.259 23.4382 118.591 23.0506 118.034 22.5225C117.478 21.9944 117.045 21.3427 116.742 20.5562C116.439 19.7697 116.287 18.8371 116.287 17.7641V13.2641L116.298 13.2697Z" fill="white"/>
<path d="M19.485 10.1686C19.013 8.91576 18.3499 7.8371 17.4902 6.93261C16.6305 6.02812 15.6021 5.32587 14.3996 4.82587C13.1971 4.32587 11.871 4.07306 10.41 4.07306C8.94901 4.07306 7.62288 4.30901 6.42037 4.77531C5.21786 5.2416 4.18393 5.91014 3.32419 6.78654C2.46445 7.66295 1.79015 8.71913 1.31252 9.9607C0.834887 11.2023 0.593262 12.5955 0.593262 14.1349C0.593262 15.8371 0.851744 17.3259 1.36309 18.5955C1.87444 19.8652 2.57122 20.927 3.45343 21.7809C4.33565 22.6349 5.36958 23.2697 6.56647 23.6854C7.76336 24.1068 9.04454 24.3146 10.4044 24.3146C11.9328 24.3146 13.3039 24.0787 14.5176 23.6124C15.7314 23.1461 16.7541 22.4776 17.597 21.6124C18.4342 20.7416 19.0804 19.691 19.5187 18.4551C19.9626 17.2191 20.1818 15.8315 20.1818 14.2922C20.1818 12.7528 19.9458 11.427 19.4738 10.1742L19.485 10.1686ZM11.2585 16.354C11.2585 16.7191 11.2079 16.9832 11.1012 17.1686C11.0056 17.3315 10.8033 17.5337 10.3763 17.5337C10.1234 17.5337 9.92675 17.4607 9.78065 17.3202L9.68513 17.2247V14.0337C9.68513 13.6517 9.67951 13.3315 9.66827 13.0618C9.65703 12.7922 9.64579 12.5506 9.63455 12.3483C9.62331 12.1573 9.60646 11.9776 9.58398 11.8259C9.5615 11.6573 9.53903 11.4719 9.52779 11.2753L9.51655 11.1349L9.6177 11.0337C9.68513 10.9663 9.76379 10.9045 9.85932 10.854C9.97171 10.7922 10.1066 10.7641 10.2639 10.7641C10.4493 10.7641 10.6235 10.8259 10.7696 10.9382C10.9157 11.0562 11.0225 11.2528 11.0955 11.5618C11.1574 11.8146 11.2023 12.1349 11.2192 12.5169C11.236 12.882 11.2473 13.3315 11.2473 13.8596V16.3596L11.2585 16.354Z" fill="white"/>
<path d="M95.1027 10.1686C94.6307 8.91576 93.9676 7.8371 93.1079 6.93261C92.2481 6.02812 91.2198 5.32587 90.0173 4.82587C88.8148 4.32587 87.4887 4.07306 86.0277 4.07306C84.5667 4.07306 83.2406 4.30901 82.038 4.77531C80.8355 5.2416 79.8016 5.91014 78.9419 6.78654C78.0821 7.66295 77.4078 8.71913 76.9302 9.9607C76.4526 11.2023 76.2109 12.5955 76.2109 14.1349C76.2109 15.8371 76.4694 17.3259 76.9808 18.5955C77.4921 19.8652 78.1889 20.927 79.0711 21.7809C79.9533 22.6349 80.9873 23.2697 82.1841 23.6854C83.381 24.1068 84.6622 24.3146 86.0221 24.3146C87.5505 24.3146 88.9216 24.0787 90.1353 23.6124C91.3491 23.1461 92.3718 22.4776 93.2146 21.6124C94.0519 20.7416 94.6981 19.691 95.1364 18.4551C95.5803 17.2191 95.7995 15.8315 95.7995 14.2922C95.7995 12.7528 95.5635 11.427 95.0914 10.1742L95.1027 10.1686ZM86.8762 16.354C86.8762 16.7191 86.8256 16.9832 86.7188 17.1686C86.6233 17.3315 86.421 17.5337 85.994 17.5337C85.7411 17.5337 85.5444 17.4607 85.3983 17.3202L85.3028 17.2247V14.0337C85.3028 13.6517 85.2972 13.3315 85.2859 13.0618C85.2747 12.7922 85.2635 12.5506 85.2522 12.3483C85.241 12.1573 85.2241 11.9776 85.2017 11.8259C85.1792 11.6573 85.1567 11.4719 85.1455 11.2753L85.1342 11.1349L85.2354 11.0337C85.3028 10.9663 85.3815 10.9045 85.477 10.854C85.5894 10.7922 85.7242 10.7641 85.8816 10.7641C86.067 10.7641 86.2412 10.8259 86.3873 10.9382C86.5334 11.0562 86.6402 11.2528 86.7132 11.5618C86.775 11.8146 86.82 12.1349 86.8368 12.5169C86.8537 12.882 86.8649 13.3315 86.8649 13.8596V16.3596L86.8762 16.354Z" fill="white"/>
<path d="M75.0588 10.3034C74.7554 9.23036 74.3564 8.32587 73.8675 7.58429C73.3786 6.84272 72.8224 6.2416 72.1986 5.78092C71.5749 5.32025 70.9399 4.96631 70.2993 4.71351C69.6587 4.4607 69.035 4.29216 68.4337 4.20789C67.8325 4.118 67.3043 4.07867 66.8491 4.07867C66.113 4.07867 65.4443 4.14609 64.8487 4.28092C64.2475 4.41575 63.7024 4.618 63.2135 4.89328C62.7246 5.16856 62.2807 5.50564 61.8818 5.91014C61.4828 6.31463 61.1176 6.78092 60.7804 7.32025C60.5444 7.32025 60.3871 7.26969 60.2972 7.16294C60.2072 7.0562 60.1679 6.93822 60.1679 6.79778C60.1679 6.64609 60.2072 6.50002 60.2915 6.35957C60.5107 5.98879 60.949 5.56182 61.6008 5.08429C61.3311 4.94384 60.9996 4.8371 60.6062 4.76969C60.2072 4.70227 59.7689 4.66294 59.2745 4.66294H57.1616C56.92 4.66294 56.7009 4.79778 56.5829 5.01126C56.493 5.1798 56.4087 5.34834 56.3356 5.52811C56.2064 5.8371 56.0996 6.15733 56.0097 6.48317C55.9198 6.80901 55.858 7.12924 55.8186 7.44384C55.7793 7.75845 55.7568 8.0562 55.7568 8.3371C55.7568 9.01126 55.8411 9.66294 56.0097 10.2809C56.1614 10.8315 56.3862 11.3315 56.6784 11.7865C56.7458 11.8933 56.7852 12.0113 56.7852 12.1405V26.0281C56.7852 26.7528 56.9144 27.3652 57.1729 27.8652C57.4314 28.3652 57.7854 28.7753 58.2461 29.0955C58.7069 29.4158 59.2632 29.6517 59.915 29.7978C60.5669 29.9438 61.2918 30.0169 62.0841 30.0169C62.4325 30.0169 62.7921 29.9944 63.1573 29.9551C63.5226 29.9158 63.8822 29.854 64.2362 29.7809C64.5846 29.7023 64.9161 29.618 65.2252 29.5169C65.3657 29.4719 65.4949 29.427 65.6185 29.382C65.8714 29.2865 66.04 29.045 66.04 28.7697V25.1686C66.04 24.8259 65.7703 24.5393 65.4275 24.5169C65.0229 24.4888 64.6633 24.4551 64.3486 24.4214C63.8878 24.3708 63.517 24.3034 63.2304 24.2191C62.9438 24.1349 62.7359 24.0337 62.6123 23.9158C62.483 23.7922 62.4212 23.6461 62.4212 23.4719C62.4212 23.3315 62.4605 23.2304 62.5448 23.1742C62.6404 23.2191 62.7696 23.2753 62.9494 23.3427C63.1236 23.4045 63.3596 23.4719 63.6518 23.5337C63.944 23.5955 64.3036 23.6517 64.7363 23.7023C65.169 23.7472 65.6916 23.7697 66.3097 23.7697C67.7426 23.7697 69.0294 23.5562 70.1701 23.1292C71.3052 22.7023 72.2717 22.0787 73.064 21.2584C73.8563 20.4382 74.4632 19.427 74.8846 18.2304C75.306 17.0337 75.5139 15.6742 75.5139 14.1461C75.5139 12.618 75.3622 11.3877 75.0588 10.3146V10.3034ZM67.0009 16.2922C67.0009 16.6573 66.9503 16.9214 66.8435 17.1068C66.748 17.2697 66.5457 17.4719 66.1186 17.4719C65.8658 17.4719 65.6691 17.3989 65.523 17.2584L65.4275 17.1629V13.9719C65.4275 13.5899 65.4219 13.2697 65.4106 13C65.3994 12.7304 65.3882 12.4888 65.3769 12.2865C65.3657 12.0955 65.3488 11.9158 65.3263 11.7641C65.3039 11.5955 65.2814 11.4101 65.2701 11.2135L65.2589 11.0731L65.36 10.9719C65.4275 10.9045 65.5062 10.8427 65.6017 10.7922C65.7141 10.7304 65.8489 10.7023 66.0063 10.7023C66.1917 10.7023 66.3659 10.7641 66.512 10.8764C66.6581 10.9944 66.7648 11.191 66.8379 11.5C66.8997 11.7528 66.9447 12.0731 66.9615 12.4551C66.9784 12.8202 66.9896 13.2697 66.9896 13.7978V16.2978L67.0009 16.2922Z" fill="white"/>
</svg>
