

<svg  version="1.1" id="Layer_1" xmlns="http://www.w3.org/2000/svg" xmlns:xlink="http://www.w3.org/1999/xlink" x="0px" y="0px"
	 viewBox="0 -14 2884.6 325" enable-background="new 0 -14 2884.6 325" xml:space="preserve">
<g>
	<g>
		
		<g>
			<path fill="#FFFFFF" d="M224.7,36.1c0-2.4,0.1-4.8,0.4-7.1c0.4-3.4,1.1-6.7,2.1-10H62.6C28,19.1,0,47.1,0,81.7v221.9h221.9
				c34.6,0,62.6-28,62.6-62.6V95.9C251.5,95.9,224.7,69.1,224.7,36.1z M274.5,240.9c0,29.1-23.6,52.6-52.6,52.6H10V81.7
				C10,52.6,33.5,29,62.6,29h152.5c-0.2,2.3-0.4,4.7-0.4,7.1c0,35.1,26,64.2,59.7,69V240.9z"/>
			<circle fill="#FF32A1" cx="284.4" cy="36.1" r="42.7"/>
			<g>
				<path fill="#FFFFFF" d="M40.3,216c-0.8,1.8-0.5,3.3-0.3,3.8c0,0,0,0.1,0,0.1c0.4,2.3,2,7.4,5.5,11.3c0,0.2,0,0.4,0,0.7
					c0,1-0.1,2.4-0.1,3.2l-0.1,3h75.2c0.4,0.1,0.8,0.1,1.2,0.1c0.6,0,1.1,0,1.7-0.1h16.1l-0.1-3c0-0.6-0.1-1.6-0.1-2.5l0.6-0.2h-0.6
					c0-0.2,0-0.3,0-0.5c0-0.3,0-0.5,0-0.7c3.5-3.9,5.1-9,5.5-11.3c0,0,0-0.1,0-0.1c0.1-0.6,0.5-2-0.3-3.8c-1-2.1-2.7-3.3-3.9-4.1
					c-1.4-1-2.9-1.7-3.9-2c-8.2-3.7-13.1-6.4-15.9-8.2c-1.4-0.9-2.3-1.5-2.7-1.9c-0.2-0.1-0.3-0.2-0.4-0.3l0,0l-0.1-0.1
					c-3.9-4-7.1-10.8-9.4-18.1c-2.2-7.1-3.5-14.3-4.1-18.8v-1.8l0-0.2c-0.1-0.7,0.2-1.9,1.1-3.4c0.9-1.4,2-2.7,2.7-3.4
					c1.3-1.2,3.5-2.5,6-3.9c3.3-1.3,5.6-2.4,7.1-3.3c0.8-0.4,1.4-0.9,1.8-1.3c0.2-0.2,0.5-0.4,0.7-0.7c0.2-0.2,0.5-0.6,0.6-1.1
					c0.3-0.8,0.3-1.9,0.1-3.1l-0.1-0.5l-0.3-0.4c-1.2-2-3.2-2.6-4.4-2.6c-5.3-0.3-8.8-0.9-11.2-1.5c-0.7-0.2-1.3-0.3-1.7-0.5
					c3.2-1.8,5.7-4.3,7.5-6.8c2.4-3.2,3.9-6.5,4.6-8.6l0-0.1l0-0.1c2.6-12.3-1.1-20.9-7.1-26.5c-5.8-5.4-13.3-8-19.3-8
					c-6.1,0-13.4,2.7-19.2,8c-6,5.6-9.7,14.2-7.1,26.5l0,0.1l0,0.1c0.7,2.2,2.2,5.5,4.6,8.6c1.9,2.5,4.4,5,7.5,6.8
					c-0.5,0.2-1,0.3-1.7,0.5c-2.4,0.6-5.9,1.1-11.2,1.5c-1.2,0-3.2,0.6-4.4,2.6l-0.3,0.4l-0.1,0.5c-0.2,1.1-0.2,2.2,0.1,3.1
					c0.2,0.5,0.5,0.9,0.6,1.1c0.2,0.3,0.5,0.5,0.7,0.7c0.5,0.4,1.1,0.8,1.8,1.3c1.5,0.9,3.7,2,7,3.3c2.4,1.4,4.7,2.7,6,3.9
					c0.7,0.7,1.9,2,2.7,3.4c0.9,1.5,1.2,2.7,1.1,3.4l0,0.2v1.8c-0.5,4.5-1.8,11.6-4.1,18.8c-2.3,7.3-5.4,14.2-9.4,18.1l-0.1,0.1l0,0
					c-0.1,0.1-0.2,0.2-0.4,0.3c-0.5,0.4-1.3,1-2.7,1.9c-2.8,1.8-7.7,4.5-15.9,8.2c-1,0.4-2.5,1.1-3.9,2
					C43,212.7,41.3,213.9,40.3,216z"/>
				<path fill="#FFFFFF" d="M160,205.8l3.4-37.7l30,62.7c0.3,0.5,0.6,1.2,0.9,2c0.4,0.9,0.9,1.7,1.5,2.5c0.6,0.8,1.3,1.5,2.2,2
					c0.9,0.6,1.9,0.9,3.1,0.9c0.6,0,1.2-0.1,1.9-0.3c0.7-0.1,1.5-0.4,2.3-0.9c3.1-1.7,5.8-3.1,8.3-4.3c2.5-1.2,4.7-2.2,6.8-3.1
					c2-0.9,3.9-1.8,5.6-2.5c1.7-0.7,3.4-1.5,5-2.3c0.8-0.4,1.9-0.9,3.4-1.6c1.5-0.7,3.1-1.4,4.5-2.1c1.5-0.7,2.8-1.4,3.8-2.1
					c1.1-0.7,1.7-1.4,1.7-1.9c0-0.7-0.4-1.1-1.3-1.2c-0.9-0.1-1.9-0.2-3.2-0.2c-1.3-0.1-2.7-0.2-4.1-0.4c-1.5-0.3-2.8-0.9-3.9-1.9
					c-3.5-5.1-6.6-9.9-9.3-14.4c-2.7-4.5-5.1-8.5-7.2-12.1c-2-3.7-3.8-6.8-5.2-9.5c-1.5-2.7-2.8-4.8-3.8-6.4c-1-1.8-1.8-3.2-2.5-4.2
					c-0.6-1.1-1.1-1.9-1.4-2.4c-0.3-0.6-0.6-1-0.7-1.2c-0.1-0.2-0.1-0.4-0.1-0.5c0.7-0.3,1.9-0.8,3.8-1.7c1.9-0.9,4-2.2,6.4-3.7
					c2.5-1.5,5.1-3.4,7.8-5.5c2.7-2.2,5.1-4.7,7.4-7.5c2.3-2.9,4.1-6.1,5.5-9.6c1.5-3.5,2.2-7.4,2.2-11.6c0-7.6-1.6-13.8-4.7-18.8
					c-3.1-5-7.2-8.9-12.4-11.8c-5.1-2.9-11-5-17.6-6.2c-6.6-1.3-13.4-2-20.4-2.1c-6.2,0-12,0.2-17.5,0.7c-5.5,0.4-10.7,0.9-15.6,1.6
					c-4.6,0.6-9,1.3-13.1,2.1c4.8,5.6,7.3,13.5,5.1,24.4l0,0.1l0,0.1c-0.7,2.2-2.2,5.5-4.6,8.6c-1.9,2.5-4.4,5-7.5,6.8
					c0.5,0.2,1,0.3,1.7,0.5c2.4,0.6,5.9,1.1,11.2,1.5c1.2,0,3.2,0.6,4.4,2.6l0.3,0.4l0.1,0.5c0.2,1.1,0.2,2.2-0.1,3.1
					c-0.2,0.5-0.5,0.9-0.6,1.1c-0.2,0.3-0.5,0.5-0.7,0.7c-0.5,0.4-1.1,0.8-1.8,1.3c-1.5,0.9-3.7,2-7.1,3.3c-2.4,1.4-4.7,2.7-6,3.9
					c-0.7,0.7-1.9,2-2.7,3.4c-0.5,0.8-0.8,1.5-1,2.1l-0.1,1.5l0,0v1.8c0.5,4.5,1.8,11.6,4.1,18.8c2.3,7.3,5.4,14.2,9.4,18.1l0.1,0.1
					l0,0c0.1,0.1,0.2,0.2,0.4,0.3c0.5,0.4,1.3,1,2.7,1.9c2.8,1.8,7.7,4.5,15.9,8.2C157.5,204.5,158.8,205.1,160,205.8z M175.3,153.2
					c-3.7,1.7-7.3,2.6-10.7,2.6l4-42.4c1.2-0.1,2.6-0.3,4-0.6c1.5-0.3,3.3-0.5,5.5-0.5c11.7,0,17.5,4.8,17.5,14.5
					c0,3.5-1,7-2.9,10.5c-1.9,3.5-4.4,6.6-7.5,9.3C182.3,149.3,179,151.5,175.3,153.2z"/>
			</g>
		</g>
	</g>
    <!-- <svg  id="Layer_1" data-name="Layer 1" xmlns="http://www.w3.org/2000/svg" viewBox="0 0 603.4 202.57" transform="translate(-500, 0)"><defs><style>.cls-1{fill:#c2a383;}</style></defs><title>outpost_logo</title><path class="cls-1" d="M233.7,101.93c0,17.62-12,31.88-31.88,31.88s-31.76-14.27-31.76-31.88,12.16-31.88,31.63-31.88S233.7,84.44,233.7,101.93Zm-48.51,0c0,9.3,5.58,18,16.62,18s16.62-8.68,16.62-18S212,83.82,201.82,83.82C190.91,83.82,185.2,92.75,185.2,101.93Z"/><path class="cls-1" d="M257.15,71.29v32c0,9.3,5.09,16.37,14.76,16.37,9.3,0,15.63-7.81,15.63-17.12V71.29h15v61.28H289l-1-8.31c-6.33,6.2-12.16,9.18-20.72,9.18-14.64,0-25.31-11-25.31-30V71.29Z"/><path class="cls-1" d="M334.81,54V71.41h26.41v13H334.69v26.42c0,5.83,3.23,8.68,7.94,8.68a17.31,17.31,0,0,0,7.32-1.86l4.22,12.9a33.8,33.8,0,0,1-12.53,2.6c-13.27.5-22-7.07-22-22.33V84.44H308.27v-13h11.41V55.66Z"/><path class="cls-1" d="M360.49,158V71.29h14.14l1,8.43c4.71-6.82,12.9-9.8,19.85-9.8,18.86,0,31.39,14,31.39,32s-11.29,32-30.89,32c-6.45,0-16-2-20.34-8.68v30.09Zm51.23-56.07c0-9.55-6.45-17.37-17.37-17.37S377,92.38,377,101.93a17.37,17.37,0,1,0,34.74,0Z"/><path class="cls-1" d="M496.33,101.93c0,17.62-12,31.88-31.88,31.88s-31.76-14.27-31.76-31.88,12.16-31.88,31.63-31.88S496.33,84.44,496.33,101.93Zm-48.51,0c0,9.3,5.58,18,16.62,18s16.62-8.68,16.62-18-6.45-18.11-16.62-18.11C453.54,83.82,447.83,92.75,447.83,101.93Z"/><path class="cls-1" d="M544.22,87.54c-4.34-4.09-9.31-5.46-15.13-5.46-7.2,0-11.17,2.23-11.17,6.08s3.6,6.2,11.41,6.7c11.54.74,26.18,3.35,26.18,19.6,0,10.79-8.81,20.1-26.3,20.1-9.68,0-19.35-1.61-28.28-10.92l7.44-10.79c4.34,4.84,14.27,8.43,21.09,8.56,5.71.12,11-2.85,11-7.32,0-4.22-3.47-6-12.16-6.45-11.54-.87-25.31-5.09-25.31-19,0-14.14,14.64-19.11,25.8-19.11,9.55,0,16.75,1.86,23.82,8.06Z"/><path class="cls-1" d="M584,54V71.41h16.87v13h-17v26.42c0,5.83,3.23,8.68,7.94,8.68a17.31,17.31,0,0,0,7.32-1.86l4.22,12.9a33.8,33.8,0,0,1-12.53,2.6c-13.27.5-22-7.07-22-22.33V84.44H557.5v-13h11.41V55.66Z"/><path class="cls-1" d="M88,57.21H70.35V39.58H88ZM52.89,39.58H35.26V57.21H52.89Zm43.9-8.64H88.15v8.64h8.64ZM65.85,18h-13v13h13ZM35.26,22.3H26.62v8.64h8.64ZM48.4,4.67H39.75v8.64H48.4Zm61.71,13h-4.32V22h4.32ZM65.85,0H61.53V4.32h4.32ZM88,13.31H79.34V22H88ZM35.26,171.64H43.9V163H35.26Zm30.94,13h13v-13h-13Zm30.59-4.32h8.64v-8.64H96.79Zm-11,15.47h4.32v-4.32H85.82Zm-68.19-10.8H22v-4.32H17.63ZM66.2,202.57h4.32v-4.32H66.2ZM44.08,189.27h8.64v-8.64H44.08ZM17.63,57.21V39.58H0V92.47H17.63V74.84H35.26V57.21ZM123.46,74.84V39.58H105.78V57.21H88.15V74.84H70.52V57.21H52.89V74.84H35.26V92.47H43.9v8.64H35.26V92.47H17.68V110.1H35.31v17.63H17.68V110.1H0v35.26H17.63V163H35.26V145.36H52.89V163H70.52V145.36H88.15V127.73H70.52V110.1H88.15v-8.64h8.64v8.64H88.15v17.63h17.63v17.63H88.15V163h17.68V145.36h17.63V92.47H105.83V74.84Z"/></svg> -->
	



</g>
<g eight="1030" clip-path="url(#clip0_35_275)">
<path d="M47.9707 23.073C47.8303 23.191 47.6673 23.309 47.4706 23.4326C47.2796 23.5562 47.0492 23.6629 46.7795 23.7584C46.5098 23.8539 46.1951 23.9326 45.8355 23.9944C45.4758 24.0562 45.0544 24.0899 44.5768 24.0899C44.0542 24.0899 43.5091 24.0449 42.9472 23.9494C42.3853 23.8539 41.8402 23.6966 41.312 23.4663C40.7838 23.2416 40.2781 22.9326 39.8004 22.5505C39.3228 22.1629 38.907 21.6854 38.5473 21.1067C38.1877 20.5281 37.9068 19.8483 37.6988 19.0618C37.4909 18.2753 37.3842 17.3539 37.3842 16.309V11.9213C37.1369 11.4887 36.929 10.9887 36.7548 10.4269C36.5806 9.85953 36.4907 9.21908 36.4907 8.49436C36.4907 8.17976 36.5132 7.85391 36.5525 7.51683C36.5919 7.17976 36.6537 6.84268 36.738 6.51122C36.8223 6.17976 36.9234 5.85391 37.0526 5.53931C37.1819 5.2247 37.3392 4.93256 37.5247 4.6629H41.3738C42.0481 4.6629 42.6718 4.74155 43.245 4.89886C43.8182 5.05616 44.307 5.30335 44.7172 5.64043C45.1274 5.97751 45.4421 6.40447 45.6725 6.92695C45.8973 7.4438 46.0153 8.0674 46.0153 8.79211V14.4607C46.0153 15.1123 46.0771 15.5618 46.2007 15.7977C46.3243 16.0393 46.476 16.1573 46.6671 16.1573C46.7851 16.1573 46.875 16.1404 46.9368 16.1067C46.9986 16.073 47.0604 16.0337 47.1222 15.9831C47.0661 15.7865 47.0211 15.5449 46.993 15.264C46.9649 14.9831 46.9481 14.6236 46.9481 14.1798V5.53931C47.1672 5.41009 47.4201 5.28088 47.6898 5.14605C47.9651 5.01122 48.2798 4.89324 48.6451 4.7865C49.0103 4.67976 49.4093 4.59549 49.8588 4.52245C50.3083 4.45504 50.8253 4.41571 51.4097 4.41571C52.4268 4.41571 53.2978 4.55054 54.0339 4.82582C54.77 5.1011 55.3207 5.4438 55.6971 5.84829V14.9607C55.6971 15.764 55.7871 16.455 55.9612 17.0337C56.1354 17.6123 56.467 18.0505 56.9558 18.3539C56.9671 18.4494 56.9727 18.5618 56.9727 18.6966V19C56.9727 19.8876 56.8547 20.6517 56.6131 21.2921C56.3715 21.9326 56.0455 22.4607 55.6241 22.8764C55.2027 23.2921 54.7082 23.5955 54.1294 23.7921C53.5506 23.9887 52.9269 24.0899 52.247 24.0899C51.3816 24.0899 50.5837 23.8932 49.8419 23.4944C49.1002 23.0955 48.5439 22.5 48.173 21.691C47.7741 21.691 47.5774 21.882 47.5774 22.2696C47.5774 22.3989 47.6111 22.5337 47.6842 22.6741C47.7572 22.8146 47.8527 22.9494 47.982 23.0786L47.9707 23.073Z" fill="white"/>
<path d="M59.2375 13.3483C59.2375 13 59.5185 12.7191 59.8669 12.7191H60.322C60.6255 12.7191 60.8446 12.6685 60.9851 12.5618C61.1256 12.4551 61.193 12.3146 61.193 12.1405C61.193 12.073 61.1818 12 61.1593 11.9326H57.726C57.4281 11.9326 57.1753 11.7247 57.1078 11.4326C57.0404 11.1405 56.9898 10.8539 56.9505 10.5393C56.8887 10.0337 56.855 9.51686 56.855 8.98877C56.855 8.65169 56.8775 8.26405 56.9168 7.82585C56.9449 7.51686 56.9842 7.24719 57.0236 7.01124C57.0573 6.83708 57.1528 6.69101 57.3045 6.59551C57.7203 6.33146 58.1305 6.05056 58.5407 5.75281C58.9509 5.45506 59.3499 5.16292 59.6927 4.91011C59.7826 4.8427 59.85 4.75843 59.895 4.65169C59.9849 4.43259 60.086 4.16292 60.1984 3.84832C60.3389 3.44944 60.4794 3.03933 60.6198 2.60674C60.7603 2.17416 60.8952 1.75843 61.0244 1.35394C61.1031 1.10674 61.1761 0.882025 61.2436 0.685396C61.3166 0.471913 61.4964 0.314609 61.7156 0.269666C62.0303 0.207868 62.4067 0.151688 62.845 0.101126C63.4632 0.0337106 64.0925 -0.00561523 64.7331 -0.00561523C65.2332 -0.00561523 65.7389 0.0224747 66.2447 0.0842724C66.6043 0.123598 66.992 0.185396 67.4078 0.264048C67.7057 0.320227 67.9192 0.584272 67.9192 0.882025V4.02247C67.9192 4.37079 68.2001 4.65169 68.5485 4.65169H72.8135C73.0327 4.65169 73.2462 4.76405 73.3586 4.95506C73.6058 5.38764 73.7969 5.85955 73.9317 6.37641C74.1003 7.01124 74.1846 7.64607 74.1846 8.27528C74.1846 8.87079 74.1003 9.5 73.9317 10.1742C73.7969 10.7135 73.6058 11.1966 73.3586 11.6236C73.2518 11.809 73.0439 11.9157 72.8247 11.9157H69.0767C68.7283 11.9157 68.4474 12.1966 68.4474 12.5449V14.5562C68.4474 15.3596 68.6103 15.9382 68.9363 16.2809C69.2622 16.6236 69.7229 16.7978 70.3186 16.7978H70.5771C70.8693 16.7978 71.1221 16.9944 71.1896 17.2753C71.2345 17.4831 71.2851 17.6966 71.3244 17.9157C71.3975 18.3146 71.4368 18.7079 71.4368 19.1067C71.4368 20.7303 70.9311 21.9663 69.914 22.8146C68.8969 23.6685 67.4528 24.0899 65.576 24.0899C64.632 24.0899 63.7722 23.9607 62.9968 23.7022C62.2213 23.4438 61.5526 23.0562 60.9963 22.5281C60.4344 22.0056 60.0074 21.3483 59.7039 20.5618C59.4005 19.7753 59.2488 18.8427 59.2488 17.7697V13.3427L59.2375 13.3483Z" fill="white"/>
<path d="M123.077 9.98879C122.891 9.98879 122.712 9.98879 122.537 10C122.363 10.0056 122.206 10.0281 122.071 10.0674C121.936 10.1068 121.829 10.1686 121.745 10.2528C121.661 10.3371 121.622 10.4495 121.622 10.6012V10.6967C121.622 10.736 121.627 10.7697 121.638 10.7922C121.835 10.7809 122.004 10.7753 122.144 10.7753H122.566C123.15 10.7753 123.751 10.8203 124.369 10.9045C124.987 10.9944 125.583 11.1349 126.162 11.3315C126.741 11.5281 127.286 11.7922 127.797 12.118C128.308 12.4438 128.758 12.8427 129.134 13.309C129.511 13.7753 129.814 14.3259 130.033 14.9551C130.253 15.5843 130.365 16.3034 130.365 17.1068C130.365 18.3203 130.146 19.3764 129.708 20.2809C129.269 21.1854 128.651 21.9326 127.842 22.5281C127.038 23.1236 126.066 23.5674 124.937 23.8652C123.807 24.1629 122.543 24.309 121.155 24.309C119.874 24.309 118.7 24.1967 117.632 23.9776C116.564 23.7585 115.654 23.4214 114.895 22.9832C114.137 22.5394 113.547 21.9832 113.131 21.3146C112.709 20.6461 112.502 19.854 112.502 18.9438C112.502 18.6068 112.541 18.2809 112.625 17.9719C112.704 17.6629 112.811 17.3821 112.94 17.1236C113.069 16.8652 113.215 16.6405 113.378 16.4495C113.541 16.2585 113.704 16.1068 113.867 16.0056C114.148 16.2416 114.513 16.4776 114.963 16.7135C115.412 16.9551 115.924 17.1629 116.502 17.354C117.081 17.545 117.705 17.691 118.385 17.809C119.059 17.927 119.778 17.9832 120.537 17.9832C120.885 17.9832 121.11 17.9382 121.211 17.8427C121.312 17.7472 121.357 17.6236 121.357 17.4551C121.357 17.3596 121.341 17.2697 121.307 17.1742C121.178 17.1854 121.082 17.191 121.009 17.191H120.818C119.672 17.191 118.593 17.0731 117.57 16.8427C116.547 16.6124 115.654 16.2416 114.884 15.7304C114.114 15.2247 113.502 14.5787 113.047 13.7978C112.591 13.0169 112.367 12.0731 112.367 10.9663C112.367 10.045 112.552 9.16857 112.929 8.33149C113.299 7.50003 113.867 6.76407 114.626 6.13486C115.384 5.50565 116.334 5.00565 117.48 4.62924C118.621 4.25846 119.964 4.06744 121.504 4.06744C122.262 4.06744 122.993 4.11239 123.689 4.19666C124.392 4.28654 125.044 4.40452 125.656 4.55621C126.269 4.70789 126.836 4.88767 127.353 5.08992C127.87 5.29216 128.325 5.50565 128.707 5.73037C128.825 5.97756 128.91 6.3034 128.96 6.70789C129.011 7.11801 129.039 7.49441 129.039 7.84272C129.039 8.6461 128.921 9.32025 128.69 9.85396C128.454 10.3933 128.185 10.809 127.87 11.1124C127.6 10.9607 127.291 10.8203 126.943 10.6854C126.595 10.5506 126.212 10.4326 125.797 10.3259C125.381 10.2191 124.942 10.1349 124.487 10.0731C124.027 10.0113 123.555 9.97756 123.077 9.97756V9.98879Z" fill="white"/>
<path d="M132.298 13.2697C132.298 12.9607 132.545 12.7135 132.854 12.7135H133.383C133.686 12.7135 133.905 12.6629 134.046 12.5562C134.186 12.4494 134.254 12.309 134.254 12.1348C134.254 12.0674 134.242 11.9944 134.22 11.927H130.725C130.472 11.927 130.247 11.7641 130.191 11.5169C130.118 11.2079 130.056 10.882 130.011 10.5337C129.949 10.0281 129.916 9.51124 129.916 8.98315C129.916 8.64607 129.938 8.25843 129.977 7.82023C130.005 7.48877 130.05 7.20225 130.095 6.94944C130.123 6.80338 130.213 6.67978 130.337 6.60113C130.764 6.33147 131.185 6.04495 131.601 5.74158C132.017 5.43821 132.422 5.14045 132.77 4.88765C132.849 4.82585 132.911 4.75281 132.944 4.66293C133.034 4.43821 133.141 4.16293 133.253 3.83708C133.394 3.43821 133.534 3.0281 133.675 2.59551C133.815 2.16293 133.95 1.7472 134.079 1.3427C134.164 1.07866 134.242 0.842702 134.31 0.634837C134.372 0.443826 134.529 0.308994 134.726 0.269668C135.051 0.207871 135.439 0.146073 135.894 0.0955111C136.512 0.0280954 137.142 -0.0112305 137.782 -0.0112305C138.283 -0.0112305 138.788 0.0168594 139.294 0.0786572C139.676 0.123601 140.081 0.185399 140.513 0.269668C140.772 0.32023 140.963 0.550567 140.963 0.814612V4.08989C140.963 4.39888 141.21 4.64607 141.519 4.64607H143.677C143.874 4.64607 144.059 4.74158 144.155 4.91012C144.413 5.35394 144.61 5.83708 144.75 6.36517C144.919 7.00001 145.003 7.63484 145.003 8.26405C145.003 8.85956 144.919 9.48877 144.75 10.1629C144.61 10.7191 144.413 11.2135 144.155 11.6461C144.059 11.809 143.874 11.9045 143.683 11.9045H142.042C141.733 11.9045 141.485 12.1517 141.485 12.4607V14.5449C141.485 15.3483 141.648 15.927 141.974 16.2697C142.3 16.6124 142.761 16.7865 143.357 16.7865H143.677C143.93 16.7865 144.16 16.9551 144.216 17.2079C144.267 17.4326 144.318 17.6685 144.362 17.9101C144.436 18.309 144.475 18.7023 144.475 19.1011C144.475 20.7247 143.969 21.9607 142.952 22.809C141.935 23.6629 140.491 24.0843 138.614 24.0843C137.67 24.0843 136.81 23.9551 136.035 23.6966C135.259 23.4382 134.591 23.0506 134.034 22.5225C133.478 21.9944 133.045 21.3427 132.742 20.5562C132.439 19.7697 132.287 18.8371 132.287 17.7641V13.2641L132.298 13.2697Z" fill="white"/>
<path d="M35.485 10.1686C35.013 8.91576 34.3499 7.8371 33.4902 6.93261C32.6305 6.02812 31.6021 5.32587 30.3996 4.82587C29.1971 4.32587 27.871 4.07306 26.41 4.07306C24.949 4.07306 23.6229 4.30901 22.4204 4.77531C21.2179 5.2416 20.1839 5.91014 19.3242 6.78654C18.4645 7.66295 17.7902 8.71913 17.3125 9.9607C16.8349 11.2023 16.5933 12.5955 16.5933 14.1349C16.5933 15.8371 16.8517 17.3259 17.3631 18.5955C17.8744 19.8652 18.5712 20.927 19.4534 21.7809C20.3356 22.6349 21.3696 23.2697 22.5665 23.6854C23.7634 24.1068 25.0445 24.3146 26.4044 24.3146C27.9328 24.3146 29.3039 24.0787 30.5176 23.6124C31.7314 23.1461 32.7541 22.4776 33.597 21.6124C34.4342 20.7416 35.0804 19.691 35.5187 18.4551C35.9626 17.2191 36.1818 15.8315 36.1818 14.2922C36.1818 12.7528 35.9458 11.427 35.4738 10.1742L35.485 10.1686ZM27.2585 16.354C27.2585 16.7191 27.2079 16.9832 27.1012 17.1686C27.0056 17.3315 26.8033 17.5337 26.3763 17.5337C26.1234 17.5337 25.9268 17.4607 25.7807 17.3202L25.6851 17.2247V14.0337C25.6851 13.6517 25.6795 13.3315 25.6683 13.0618C25.657 12.7922 25.6458 12.5506 25.6346 12.3483C25.6233 12.1573 25.6065 11.9776 25.584 11.8259C25.5615 11.6573 25.539 11.4719 25.5278 11.2753L25.5166 11.1349L25.6177 11.0337C25.6851 10.9663 25.7638 10.9045 25.8593 10.854C25.9717 10.7922 26.1066 10.7641 26.2639 10.7641C26.4493 10.7641 26.6235 10.8259 26.7696 10.9382C26.9157 11.0562 27.0225 11.2528 27.0955 11.5618C27.1574 11.8146 27.2023 12.1349 27.2192 12.5169C27.236 12.882 27.2473 13.3315 27.2473 13.8596V16.3596L27.2585 16.354Z" fill="white"/>
<path d="M111.103 10.1686C110.631 8.91576 109.968 7.8371 109.108 6.93261C108.248 6.02812 107.22 5.32587 106.017 4.82587C104.815 4.32587 103.489 4.07306 102.028 4.07306C100.567 4.07306 99.2406 4.30901 98.038 4.77531C96.8355 5.2416 95.8016 5.91014 94.9419 6.78654C94.0821 7.66295 93.4078 8.71913 92.9302 9.9607C92.4526 11.2023 92.2109 12.5955 92.2109 14.1349C92.2109 15.8371 92.4694 17.3259 92.9808 18.5955C93.4921 19.8652 94.1889 20.927 95.0711 21.7809C95.9533 22.6349 96.9873 23.2697 98.1841 23.6854C99.381 24.1068 100.662 24.3146 102.022 24.3146C103.55 24.3146 104.922 24.0787 106.135 23.6124C107.349 23.1461 108.372 22.4776 109.215 21.6124C110.052 20.7416 110.698 19.691 111.136 18.4551C111.58 17.2191 111.799 15.8315 111.799 14.2922C111.799 12.7528 111.563 11.427 111.091 10.1742L111.103 10.1686ZM102.876 16.354C102.876 16.7191 102.826 16.9832 102.719 17.1686C102.623 17.3315 102.421 17.5337 101.994 17.5337C101.741 17.5337 101.544 17.4607 101.398 17.3202L101.303 17.2247V14.0337C101.303 13.6517 101.297 13.3315 101.286 13.0618C101.275 12.7922 101.263 12.5506 101.252 12.3483C101.241 12.1573 101.224 11.9776 101.202 11.8259C101.179 11.6573 101.157 11.4719 101.145 11.2753L101.134 11.1349L101.235 11.0337C101.303 10.9663 101.381 10.9045 101.477 10.854C101.589 10.7922 101.724 10.7641 101.882 10.7641C102.067 10.7641 102.241 10.8259 102.387 10.9382C102.533 11.0562 102.64 11.2528 102.713 11.5618C102.775 11.8146 102.82 12.1349 102.837 12.5169C102.854 12.882 102.865 13.3315 102.865 13.8596V16.3596L102.876 16.354Z" fill="white"/>
<path d="M91.0588 10.3034C90.7554 9.23036 90.3564 8.32587 89.8675 7.58429C89.3786 6.84272 88.8224 6.2416 88.1986 5.78092C87.5749 5.32025 86.9399 4.96631 86.2993 4.71351C85.6587 4.4607 85.035 4.29216 84.4337 4.20789C83.8325 4.118 83.3043 4.07867 82.8491 4.07867C82.113 4.07867 81.4443 4.14609 80.8487 4.28092C80.2475 4.41575 79.7024 4.618 79.2135 4.89328C78.7246 5.16856 78.2807 5.50564 77.8818 5.91014C77.4828 6.31463 77.1176 6.78092 76.7804 7.32025C76.5444 7.32025 76.3871 7.26969 76.2972 7.16294C76.2072 7.0562 76.1679 6.93822 76.1679 6.79778C76.1679 6.64609 76.2072 6.50002 76.2915 6.35957C76.5107 5.98879 76.949 5.56182 77.6008 5.08429C77.3311 4.94384 76.9996 4.8371 76.6062 4.76969C76.2072 4.70227 75.7689 4.66294 75.2745 4.66294H73.1616C72.92 4.66294 72.7009 4.79778 72.5829 5.01126C72.493 5.1798 72.4087 5.34834 72.3356 5.52811C72.2064 5.8371 72.0996 6.15733 72.0097 6.48317C71.9198 6.80901 71.858 7.12924 71.8186 7.44384C71.7793 7.75845 71.7568 8.0562 71.7568 8.3371C71.7568 9.01126 71.8411 9.66294 72.0097 10.2809C72.1614 10.8315 72.3862 11.3315 72.6784 11.7865C72.7458 11.8933 72.7852 12.0113 72.7852 12.1405V26.0281C72.7852 26.7528 72.9144 27.3652 73.1729 27.8652C73.4314 28.3652 73.7854 28.7753 74.2461 29.0955C74.7069 29.4158 75.2632 29.6517 75.915 29.7978C76.5669 29.9438 77.2918 30.0169 78.0841 30.0169C78.4325 30.0169 78.7921 29.9944 79.1573 29.9551C79.5226 29.9158 79.8822 29.854 80.2362 29.7809C80.5846 29.7023 80.9161 29.618 81.2252 29.5169C81.3657 29.4719 81.4949 29.427 81.6185 29.382C81.8714 29.2865 82.04 29.045 82.04 28.7697V25.1686C82.04 24.8259 81.7703 24.5393 81.4275 24.5169C81.0229 24.4888 80.6633 24.4551 80.3486 24.4214C79.8878 24.3708 79.517 24.3034 79.2304 24.2191C78.9438 24.1349 78.7359 24.0337 78.6123 23.9158C78.483 23.7922 78.4212 23.6461 78.4212 23.4719C78.4212 23.3315 78.4605 23.2304 78.5448 23.1742C78.6404 23.2191 78.7696 23.2753 78.9494 23.3427C79.1236 23.4045 79.3596 23.4719 79.6518 23.5337C79.944 23.5955 80.3036 23.6517 80.7363 23.7023C81.169 23.7472 81.6916 23.7697 82.3097 23.7697C83.7426 23.7697 85.0294 23.5562 86.1701 23.1292C87.3052 22.7023 88.2717 22.0787 89.064 21.2584C89.8563 20.4382 90.4632 19.427 90.8846 18.2304C91.306 17.0337 91.5139 15.6742 91.5139 14.1461C91.5139 12.618 91.3622 11.3877 91.0588 10.3146V10.3034ZM83.0009 16.2922C83.0009 16.6573 82.9503 16.9214 82.8435 17.1068C82.748 17.2697 82.5457 17.4719 82.1186 17.4719C81.8658 17.4719 81.6691 17.3989 81.523 17.2584L81.4275 17.1629V13.9719C81.4275 13.5899 81.4219 13.2697 81.4106 13C81.3994 12.7304 81.3882 12.4888 81.3769 12.2865C81.3657 12.0955 81.3488 11.9158 81.3263 11.7641C81.3039 11.5955 81.2814 11.4101 81.2701 11.2135L81.2589 11.0731L81.36 10.9719C81.4275 10.9045 81.5062 10.8427 81.6017 10.7922C81.7141 10.7304 81.8489 10.7023 82.0063 10.7023C82.1917 10.7023 82.3659 10.7641 82.512 10.8764C82.6581 10.9944 82.7648 11.191 82.8379 11.5C82.8997 11.7528 82.9447 12.0731 82.9615 12.4551C82.9784 12.8202 82.9896 13.2697 82.9896 13.7978V16.2978L83.0009 16.2922Z" fill="white"/>
<path d="M153.393 16.5112H149.347C148.46 16.5112 147.74 17.2306 147.74 18.118V22.1629C147.74 23.0503 148.46 23.7697 149.347 23.7697H153.393C154.281 23.7697 155 23.0503 155 22.1629V18.118C155 17.2306 154.281 16.5112 153.393 16.5112Z" fill="white"/>
<path d="M24.9045 21.3651C23.7863 21.0674 24.0335 19.7135 23.3424 19.0393C22.7973 18.5225 21.8364 18.6517 21.3532 18.0505C20.8474 17.4887 20.9374 16.5393 21.5386 16.0842C22.0612 15.6629 22.8985 15.7359 23.3761 15.2359C23.9661 14.6741 23.8874 13.6292 23.2188 13.1629C22.7467 12.8146 22.1005 12.8371 21.6229 12.5112C20.8474 12.0393 21.0722 10.882 20.3923 10.3371C19.5382 9.57301 18.3975 10.4157 17.6333 10.8539C17.15 11.0899 16.8803 10.764 17.1275 10.3034C17.5209 9.61234 18.2851 8.65167 17.7794 7.80897C17.3467 7.0056 16.1161 6.89324 15.5373 7.6011C15.1721 8.01683 15.1608 8.61234 14.9192 9.08987C14.5202 9.98874 13.1829 10.1292 12.5928 9.34829C11.9691 8.60672 12.3793 7.39886 13.3177 7.15728C13.756 7.01122 14.2505 6.98313 14.6158 6.67414C15.1046 6.26964 15.2058 5.45504 14.9529 4.86515C14.4865 3.87639 13.1323 4.2247 12.222 4.15167C11.1824 4.15728 10.2609 4.1011 9.8282 4.43257C9.36742 4.76964 9.37866 5.39324 9.22132 5.89886C8.97408 7.14043 7.44566 6.82582 6.77697 7.62919C6.25439 8.26403 6.48477 9.33144 7.1647 9.69661C8.04691 10.0505 9.15951 10.1011 9.22694 11.3202C9.21009 12.7191 8.00758 12.6404 7.08041 13.1011C6.3162 13.5843 6.3162 14.9438 7.08041 15.4213C7.59738 15.764 8.33349 15.6798 8.78865 16.1404C9.418 16.7416 9.24942 17.8989 10.0867 18.3314C10.6711 18.6798 11.4971 18.5112 11.8904 17.9607C12.295 17.4157 12.2164 16.6067 12.7502 16.1404C13.2334 15.6854 14.037 15.6573 14.5539 16.073C15.0878 16.4831 15.1383 17.2528 15.4305 17.8427C15.6047 18.3483 16.0992 18.7809 16.1554 19.3034C16.0824 19.8427 15.4643 19.4887 15.1271 19.2528C14.4416 18.8034 13.402 18.3427 12.7221 19.0618C12.1939 19.5562 12.3063 20.4494 11.8062 20.9663C11.3847 21.4269 10.643 21.5393 10.1035 21.2191C9.54162 20.9213 9.418 20.2865 9.22694 19.7247C8.98532 18.8483 7.97386 18.3595 7.18156 18.8202C6.32182 19.2753 6.24315 20.7977 7.18717 21.2528C8.62569 21.7247 9.23256 21.7865 9.41238 23.4775C9.51352 24.2696 10.244 24.3989 10.9239 24.3708C12.4861 24.3708 15.3238 24.382 16.7286 24.3651C18.3525 24.4101 17.7176 23.1292 18.4312 22.073C18.9594 21.3764 20.1226 21.3989 20.6227 22.1123C21.0273 22.6348 20.9205 23.4382 21.2577 23.8989L21.2857 23.9326C21.8982 24.5786 22.9715 24.309 23.7919 24.3708C24.691 24.3595 25.9722 24.4438 26.343 24.0281C26.9106 23.4944 26.8544 22.3651 26.1913 21.8483C25.8317 21.5562 25.3484 21.5056 24.9214 21.3483L24.9045 21.3651Z" fill="white"/>
<path d="M5.10216 9.98876C5.03473 10.1685 5.0853 10.5506 5.06844 10.7809C5.06844 11.0506 5.05158 11.2416 5.11901 11.3034C5.17521 11.3652 5.32692 11.3539 5.55731 11.3539C5.82703 11.3315 6.21476 11.4101 6.43391 11.3034C6.51819 11.1854 6.47324 10.9607 6.48448 10.7809C6.47324 10.5618 6.51819 10.0618 6.43391 9.98876C6.38333 9.91011 6.00123 9.94382 5.82141 9.9382C5.62474 9.94944 5.26511 9.90449 5.11901 9.97191L5.10216 9.98876ZM3.0062 15.0843C2.89381 15.3034 2.96686 15.7921 2.95 16.1124C2.95 16.3876 2.93315 16.6742 2.96686 16.9157C2.98372 17.0169 3.02867 17.073 3.1242 17.1011C3.26468 17.1404 3.54564 17.1236 3.87717 17.1292C4.32671 17.0955 4.68072 17.2135 4.99539 17.0506C5.05158 16.9888 5.06282 16.9045 5.06844 16.8146C5.06844 16.3933 5.10216 15.5506 5.04596 15.1798C5.01787 15.0843 4.96168 15.0449 4.86053 15.0225C4.62452 14.9888 4.33795 15.0112 4.05699 15.0056C3.73669 15.0281 3.24782 14.9494 3.02867 15.0618L3.0062 15.0843ZM3.68612 20.0674C3.62431 20.2978 3.64116 21.2303 3.68612 21.3539C3.73107 21.4551 3.92774 21.427 4.23118 21.4326C4.47281 21.4101 4.82682 21.4888 5.02349 21.382C5.10778 21.264 5.06282 21.0393 5.07406 20.8595C5.06844 20.5281 5.09654 20.191 5.04035 20.0955C4.99539 19.9944 4.79872 20.0225 4.49528 20.0169C4.27051 20.0337 3.88279 19.9831 3.70298 20.0506L3.68612 20.0674ZM1.135 18.2528C1.10129 18.382 1.12938 18.618 1.11814 18.7584C1.11814 18.8652 1.14062 18.9101 1.22491 18.9213C1.33729 18.9213 1.68006 18.9607 1.78683 18.8933C1.8374 18.8427 1.84302 18.3315 1.78683 18.2528C1.68006 18.2022 1.5452 18.2247 1.4272 18.2191C1.35415 18.2191 1.20243 18.2079 1.14624 18.236L1.12938 18.2528H1.135ZM2.90505 7.08427C2.87133 7.21348 2.89943 7.44944 2.88819 7.58989C2.88819 7.69663 2.91067 7.74157 2.99496 7.75281C3.10734 7.75281 3.45011 7.79213 3.55688 7.72472C3.60745 7.67415 3.61307 7.16292 3.55688 7.08427C3.45011 7.03371 3.31525 7.05618 3.19725 7.05056C3.1242 7.05056 2.97248 7.03932 2.91629 7.06741L2.89943 7.08427H2.90505ZM0.0167811 15.0393C-0.0169341 15.1685 0.0111619 15.4045 -7.64784e-05 15.5449C-7.64784e-05 15.6517 0.0224003 15.6966 0.106688 15.7079C0.219072 15.7079 0.561844 15.7472 0.668608 15.6798C0.719181 15.6292 0.7248 15.118 0.668608 15.0393C0.561844 14.9888 0.426983 15.0112 0.308979 15.0056C0.23593 15.0056 0.0842115 14.9944 0.0280195 15.0225L0.0111619 15.0393H0.0167811ZM2.21389 11.4326C2.15208 11.6629 2.16893 12.5955 2.21389 12.7191C2.25884 12.8202 2.45551 12.7921 2.75895 12.7978C3.00058 12.7753 3.35459 12.8539 3.55126 12.7472C3.63555 12.6292 3.59059 12.4045 3.60183 12.2247C3.59059 12.0056 3.63555 11.5056 3.55126 11.4326C3.50068 11.3539 3.1242 11.3876 2.93876 11.382C2.74209 11.3933 2.38246 11.3483 2.23636 11.4157L2.21951 11.4326H2.21389Z" fill="white"/>
</g>
<defs>
<clipPath id="clip0_35_275">
<rect width="125" height="30" fill="white"/>
</clipPath>
</defs>
</svg>

