<svg width="36" height="22" viewBox="0 0 36 22" fill="none" xmlns="http://www.w3.org/2000/svg">
<path d="M25.9352 15.5511C25.7491 15.2433 25.8607 14.5624 25.8328 14.1101C25.8747 13.6204 25.7211 13.0608 25.9584 12.6691C26.0515 12.5851 26.1678 12.5665 26.3027 12.5525C26.7494 12.5291 27.7218 12.5431 28.2848 12.5431C28.4755 12.5525 28.6942 12.5431 28.8338 12.6691C28.9175 12.753 28.9408 12.8882 28.9501 13.0142C28.9734 13.4619 28.9594 14.4365 28.9594 15.0008C28.9501 15.1967 28.9594 15.4065 28.8338 15.5511C28.443 15.789 27.8846 15.6351 27.3961 15.677C26.9448 15.6491 26.2609 15.761 25.9584 15.5744L25.9352 15.5511ZM28.8617 9.30197C29.0478 8.99418 28.9362 8.3133 28.9641 7.86094C28.9222 7.37127 29.0757 6.81164 28.8384 6.41991C28.7547 6.33596 28.6198 6.31264 28.4941 6.30332C28.0475 6.28 27.0751 6.29399 26.5121 6.29399C26.3167 6.30332 26.1073 6.29399 25.9631 6.41991C25.8793 6.51318 25.8607 6.62977 25.8468 6.76501C25.8235 7.21271 25.8375 8.18739 25.8375 8.75168C25.8468 8.94288 25.8375 9.16207 25.9631 9.30197C26.3539 9.53981 26.9122 9.38592 27.4008 9.42789C27.8521 9.39991 28.536 9.51183 28.8384 9.32529L28.8617 9.30197ZM30.4669 17.1927C30.5413 16.9968 30.4855 16.5818 30.4995 16.3346C30.4995 16.0408 30.5181 15.8309 30.4436 15.7656C30.3831 15.7004 30.2156 15.7143 29.9691 15.7097C29.6806 15.7377 29.2572 15.6491 29.0199 15.7656C28.9269 15.8962 28.978 16.1387 28.9641 16.3346C28.9734 16.6937 28.9408 17.0621 28.9966 17.1647C29.0478 17.272 29.2572 17.244 29.5875 17.2486C29.8341 17.2347 30.2482 17.286 30.4436 17.216L30.4669 17.1927ZM32.7421 11.6524C32.863 11.4146 32.7839 10.8829 32.8072 10.5331C32.8025 10.23 32.8212 9.92222 32.7886 9.66107C32.7653 9.54914 32.7234 9.48852 32.6211 9.45587C32.4722 9.4139 32.1651 9.42789 31.8022 9.42323C31.3137 9.46054 30.9322 9.33462 30.5879 9.51183C30.439 9.73102 30.5227 9.99684 30.4995 10.4306C30.5367 10.9202 30.4111 11.3026 30.5879 11.6477C30.867 11.811 31.2532 11.7037 31.6022 11.7363C31.9465 11.713 32.4815 11.797 32.7188 11.6711L32.7421 11.6477V11.6524ZM32.0023 6.23336C32.0767 6.0375 32.0209 5.62244 32.0348 5.37527C32.0348 5.08147 32.0535 4.87161 31.979 4.80632C31.9185 4.74103 31.751 4.75502 31.5044 4.75036C31.216 4.77834 30.7926 4.68973 30.5553 4.80632C30.4622 4.9369 30.5134 5.1794 30.4995 5.37527C30.5088 5.73437 30.4762 6.10279 30.532 6.20538C30.5832 6.31264 30.7926 6.28466 31.1229 6.28933C31.3695 6.27534 31.7836 6.32663 31.979 6.25668L32.0023 6.23336ZM35.1335 8.57446C35.208 8.37859 35.1521 7.96354 35.1661 7.71637C35.1661 7.42257 35.1847 7.21271 35.1103 7.14742C35.0498 7.08213 34.8823 7.09612 34.6357 7.09146C34.3472 7.11944 33.9238 7.03083 33.6866 7.14742C33.5935 7.278 33.6447 7.5205 33.6307 7.71637C33.64 8.07546 33.6075 8.44388 33.6633 8.54648C33.7145 8.65374 33.9238 8.62576 34.2542 8.63042C34.5008 8.61643 34.9149 8.66773 35.1103 8.59778L35.1335 8.57446ZM32.8491 19.5804C32.8863 19.4405 32.8584 19.184 32.863 19.0301C32.863 18.9135 32.8398 18.8622 32.7467 18.8529C32.6211 18.8529 32.2489 18.8109 32.1326 18.8856C32.0767 18.9415 32.0721 19.4965 32.1326 19.5804C32.2489 19.6364 32.3978 19.6131 32.5234 19.6177C32.6071 19.6177 32.77 19.6317 32.8258 19.5991L32.8444 19.5804H32.8491ZM35.9803 11.7037C36.0176 11.5638 35.9896 11.3073 35.9943 11.1534C35.9943 11.0368 35.971 10.9855 35.878 10.9762C35.7523 10.9762 35.3801 10.9342 35.2638 11.0088C35.208 11.0648 35.2033 11.6198 35.2638 11.7037C35.3801 11.7597 35.529 11.7363 35.6546 11.741C35.7384 11.741 35.9012 11.755 35.9571 11.7224L35.9757 11.7037H35.9803ZM33.5982 15.6257C33.6726 15.4299 33.6168 15.0148 33.6307 14.7676C33.6307 14.4738 33.6493 14.264 33.5749 14.1987C33.5144 14.1334 33.3469 14.1474 33.1003 14.1427C32.8118 14.1707 32.3885 14.0821 32.1512 14.1987C32.0581 14.3293 32.1093 14.5718 32.0953 14.7676C32.1046 15.1267 32.0721 15.4952 32.1279 15.5978C32.1791 15.705 32.3885 15.677 32.7188 15.6817C32.9654 15.6677 33.3795 15.719 33.5749 15.6491L33.5982 15.6257ZM5.53311 6.34529C5.45867 6.54116 5.5145 6.95621 5.50054 7.20338C5.50054 7.49718 5.48193 7.70704 5.55637 7.77233C5.61686 7.83762 5.78435 7.82363 6.03095 7.8283C6.31941 7.80031 6.74281 7.88892 6.9801 7.77233C7.07315 7.64175 7.02197 7.39925 7.03593 7.20338C7.02197 6.96554 7.07315 6.42457 6.9801 6.34529C6.92426 6.26135 6.51483 6.29865 6.31476 6.28933C6.10074 6.30332 5.70991 6.25202 5.55172 6.32197L5.52846 6.34529H5.53311ZM3.25794 11.8856C3.13697 12.1234 3.21607 12.6551 3.19281 13.0048C3.19746 13.308 3.17885 13.6157 3.21142 13.8769C3.23468 13.9888 3.27655 14.0495 3.37891 14.0821C3.5278 14.1241 3.83488 14.1101 4.19779 14.1147C4.68632 14.0774 5.06784 14.2034 5.41214 14.0261C5.47728 13.9562 5.48193 13.8722 5.49123 13.7696C5.49123 13.3126 5.52846 12.3939 5.46797 11.9928C5.4354 11.8902 5.37492 11.8436 5.26325 11.825C5.0027 11.7923 4.69562 11.811 4.3932 11.8063C4.0489 11.8296 3.51384 11.7457 3.27655 11.8716L3.25329 11.8949L3.25794 11.8856ZM3.99772 17.3046C3.93258 17.5564 3.95119 18.5684 3.99772 18.7037C4.0489 18.8109 4.25827 18.783 4.58861 18.7876C4.85382 18.7643 5.23534 18.8436 5.44471 18.7317C5.53776 18.6011 5.48658 18.3586 5.50054 18.1627C5.49124 17.8036 5.5238 17.4352 5.46797 17.3326C5.41679 17.2253 5.20742 17.2533 4.87708 17.2486C4.63049 17.2626 4.2164 17.2113 4.02098 17.2813L3.99772 17.3046ZM1.23402 15.3319C1.1968 15.4718 1.22471 15.7283 1.22006 15.8822C1.22006 15.9988 1.24332 16.0501 1.33638 16.0594C1.462 16.0594 1.83422 16.1014 1.95053 16.0268C2.00637 15.9708 2.01102 15.4159 1.95053 15.3319C1.83422 15.276 1.68533 15.2993 1.55971 15.2946C1.47596 15.2946 1.31312 15.2806 1.25728 15.3133L1.23867 15.3319H1.23402ZM3.15093 3.18807C3.11371 3.32798 3.14162 3.58447 3.13697 3.73837C3.13697 3.85496 3.16024 3.90626 3.25329 3.91558C3.37891 3.91558 3.75113 3.95756 3.86744 3.88294C3.92328 3.82698 3.92793 3.27202 3.86744 3.18807C3.75113 3.13211 3.60224 3.15543 3.47662 3.15076C3.39287 3.15076 3.23003 3.13677 3.17419 3.16942L3.15558 3.18807H3.15093ZM0.019669 11.8389C-0.0175525 11.9788 0.0103642 12.2353 0.0057115 12.3892C0.0057115 12.5058 0.028975 12.5571 0.122029 12.5665C0.247652 12.5665 0.619867 12.6084 0.736184 12.5338C0.792016 12.4778 0.796669 11.9229 0.736184 11.8389C0.619867 11.783 0.470979 11.8063 0.345356 11.8016C0.261608 11.8016 0.0987627 11.7876 0.0429303 11.8203L0.0243191 11.8389H0.019669ZM2.40185 7.9169C2.33671 8.16873 2.35532 9.18072 2.40185 9.31596C2.45303 9.42323 2.6624 9.39524 2.99274 9.39991C3.25794 9.37659 3.63946 9.45587 3.84883 9.34395C3.94189 9.21337 3.89071 8.97086 3.90467 8.77499C3.89071 8.53715 3.94189 7.99618 3.84883 7.9169C3.793 7.83296 3.38356 7.87027 3.1835 7.86094C2.96947 7.87493 2.57865 7.82363 2.42046 7.89358L2.3972 7.9169H2.40185ZM26.1911 3.47255C26.8006 2.94557 27.8335 3.34197 28.4941 2.89893C29.0106 2.58181 28.992 1.62112 28.9408 0.912264C28.9129 0.184751 28.5686 -0.0297715 27.866 0.00753687C26.1678 0.00753687 22.1246 0.00753687 20.5427 0.00753687C19.9192 -0.0251079 19.6075 0.226723 19.5935 0.856301C19.4772 2.27868 19.6308 3.19274 21.1987 3.15543C21.6175 3.18341 22.1107 3.23004 22.3805 3.54716C22.7574 3.98554 22.655 4.71305 22.7527 5.26335C22.8086 5.77634 23.1529 6.16341 23.6647 6.23336C24.316 6.34063 25.1721 6.31264 25.5164 5.90225C26.0608 5.25402 25.6048 4.13477 26.1538 3.50519L26.1911 3.46788V3.47255ZM23.0877 21.5205C23.7531 22.22 24.9162 21.9262 25.8049 21.9961C26.7773 21.9868 28.1685 22.0754 28.5732 21.623C29.1874 21.0448 29.1316 19.8136 28.4104 19.2493C28.0196 18.9322 27.4938 18.8762 27.0332 18.7083C25.8235 18.3866 26.0887 16.9129 25.3396 16.1807C24.7487 15.6211 23.7065 15.761 23.1854 15.1081C22.6364 14.4972 22.7341 13.4665 23.3855 12.9675C23.9531 12.5105 24.8604 12.5898 25.3768 12.0488C26.0189 11.4379 25.9352 10.3 25.2047 9.79631C24.6976 9.41856 23.995 9.44188 23.4692 9.08745C22.6271 8.57446 22.869 7.31531 22.1386 6.72304C21.2127 5.88826 19.9751 6.80698 19.1422 7.28266C18.6165 7.53916 18.3234 7.18473 18.5932 6.68573C19.0213 5.93023 19.8448 4.89026 19.3004 3.97155C18.8305 3.09946 17.4952 2.97355 16.8671 3.7477C16.4716 4.1954 16.4576 4.84829 16.1971 5.36595C15.7644 6.34063 14.3127 6.49919 13.6753 5.65042C13.0007 4.84829 13.4427 3.52851 14.4616 3.27202C14.9362 3.11346 15.4759 3.08081 15.8667 2.74504C16.3971 2.30666 16.5042 1.42059 16.2297 0.781685C15.7272 -0.295593 14.2523 0.0821535 13.2705 0.00287333C12.1399 0.0122004 11.1443 -0.0530891 10.6743 0.310667C10.1718 0.674423 10.1905 1.3553 10.0137 1.9056C9.7438 3.25336 8.08744 2.91292 7.36162 3.78501C6.79399 4.47055 7.04524 5.63643 7.78036 6.03283C8.73882 6.41991 9.94386 6.47587 10.0183 7.80031C10.0043 9.32063 8.69694 9.23668 7.69196 9.73568C6.86378 10.258 6.86378 11.7363 7.69196 12.2587C8.25493 12.6317 9.05055 12.5431 9.54373 13.0421C10.2277 13.695 10.0416 14.9542 10.9488 15.4252C11.5816 15.8029 12.4749 15.6211 12.903 15.0195C13.3403 14.4272 13.2566 13.5458 13.8335 13.0421C14.3546 12.5478 15.2293 12.5152 15.7876 12.9675C16.3646 13.4106 16.4204 14.25 16.7368 14.8889C16.9229 15.4392 17.4626 15.9102 17.5231 16.4792C17.444 17.0621 16.774 16.6844 16.4065 16.4279C15.662 15.9382 14.5361 15.4345 13.8009 16.218C13.2287 16.7543 13.3496 17.729 12.8053 18.2886C12.3493 18.7923 11.5444 18.9089 10.9581 18.5638C10.3486 18.242 10.2137 17.5471 10.009 16.9409C9.74845 15.9895 8.65041 15.4578 7.78966 15.9568C6.85913 16.4558 6.77073 18.1067 7.79897 18.6011C9.35762 19.1141 10.0183 19.1794 10.2137 21.0215C10.3254 21.8795 11.1163 22.0241 11.8561 21.9915C13.5497 21.9915 16.6298 22.0055 18.1512 21.9821C19.9146 22.0288 19.2213 20.639 19.9983 19.4918C20.5706 18.7363 21.8315 18.7596 22.3759 19.5384C22.8132 20.1074 22.6969 20.9795 23.0645 21.4785L23.0924 21.5158L23.0877 21.5205Z" fill="#07DA63"/>
</svg>
