
<svg width="194" height="30" viewBox="0 0 194 30" fill="none" xmlns="http://www.w3.org/2000/svg">
<g clip-path="url(#clip0_0_1)">
<path d="M47.9712 23.0731C47.8308 23.1911 47.6678 23.309 47.4711 23.4326C47.2801 23.5562 47.0497 23.663 46.78 23.7585C46.5102 23.854 46.1956 23.9326 45.8359 23.9944C45.4763 24.0562 45.0549 24.0899 44.5772 24.0899C44.0547 24.0899 43.5096 24.045 42.9477 23.9495C42.3858 23.854 41.8407 23.6967 41.3125 23.4663C40.7843 23.2416 40.2786 22.9326 39.8009 22.5506C39.3233 22.163 38.9075 21.6854 38.5478 21.1068C38.1882 20.5281 37.9072 19.8484 37.6993 19.0618C37.4914 18.2753 37.3847 17.354 37.3847 16.309V11.9214C37.1374 11.4888 36.9295 10.9888 36.7553 10.427C36.5811 9.85959 36.4912 9.21914 36.4912 8.49442C36.4912 8.17982 36.5137 7.85397 36.553 7.5169C36.5924 7.17982 36.6542 6.84274 36.7385 6.51128C36.8227 6.17982 36.9239 5.85397 37.0531 5.53937C37.1824 5.22476 37.3397 4.93263 37.5251 4.66296H41.3743C42.0486 4.66296 42.6723 4.74161 43.2455 4.89892C43.8186 5.05622 44.3075 5.30341 44.7177 5.64049C45.1279 5.97757 45.4426 6.40454 45.673 6.92701C45.8977 7.44386 46.0158 8.06746 46.0158 8.79218V14.4607C46.0158 15.1124 46.0776 15.5618 46.2012 15.7978C46.3248 16.0394 46.4765 16.1573 46.6676 16.1573C46.7856 16.1573 46.8755 16.1405 46.9373 16.1068C46.9991 16.0731 47.0609 16.0337 47.1227 15.9832C47.0665 15.7866 47.0216 15.545 46.9935 15.2641C46.9654 14.9832 46.9485 14.6236 46.9485 14.1798V5.53937C47.1677 5.41015 47.4206 5.28094 47.6903 5.14611C47.9656 5.01128 48.2803 4.8933 48.6455 4.78656C49.0108 4.67982 49.4098 4.59555 49.8593 4.52251C50.3088 4.4551 50.8258 4.41577 51.4102 4.41577C52.4273 4.41577 53.2982 4.5506 54.0344 4.82588C54.7705 5.10116 55.3211 5.44386 55.6976 5.84836V14.9607C55.6976 15.7641 55.7875 16.4551 55.9617 17.0337C56.1359 17.6124 56.4675 18.0506 56.9563 18.354C56.9676 18.4495 56.9732 18.5618 56.9732 18.6967V19C56.9732 19.8877 56.8552 20.6517 56.6136 21.2922C56.3719 21.9326 56.046 22.4607 55.6246 22.8764C55.2031 23.2922 54.7087 23.5955 54.1299 23.7922C53.5511 23.9888 52.9274 24.0899 52.2474 24.0899C51.3821 24.0899 50.5842 23.8933 49.8424 23.4944C49.1007 23.0955 48.5444 22.5 48.1735 21.6911C47.7746 21.6911 47.5779 21.8821 47.5779 22.2697C47.5779 22.3989 47.6116 22.5337 47.6847 22.6742C47.7577 22.8146 47.8532 22.9495 47.9825 23.0787L47.9712 23.0731Z" fill="white"/>
<path d="M59.2375 13.3483C59.2375 13 59.5185 12.7191 59.8669 12.7191H60.322C60.6255 12.7191 60.8446 12.6685 60.9851 12.5618C61.1256 12.4551 61.193 12.3146 61.193 12.1405C61.193 12.073 61.1818 12 61.1593 11.9326H57.726C57.4281 11.9326 57.1753 11.7247 57.1078 11.4326C57.0404 11.1405 56.9898 10.8539 56.9505 10.5393C56.8887 10.0337 56.855 9.51686 56.855 8.98877C56.855 8.65169 56.8775 8.26405 56.9168 7.82585C56.9449 7.51686 56.9842 7.24719 57.0236 7.01124C57.0573 6.83708 57.1528 6.69101 57.3045 6.59551C57.7203 6.33146 58.1305 6.05056 58.5407 5.75281C58.9509 5.45506 59.3499 5.16292 59.6927 4.91011C59.7826 4.8427 59.85 4.75843 59.895 4.65169C59.9849 4.43259 60.086 4.16292 60.1984 3.84832C60.3389 3.44944 60.4794 3.03933 60.6198 2.60674C60.7603 2.17416 60.8952 1.75843 61.0244 1.35394C61.1031 1.10674 61.1761 0.882025 61.2436 0.685396C61.3166 0.471913 61.4964 0.314609 61.7156 0.269666C62.0303 0.207868 62.4067 0.151688 62.845 0.101126C63.4632 0.0337106 64.0925 -0.00561523 64.7331 -0.00561523C65.2332 -0.00561523 65.7389 0.0224747 66.2447 0.0842724C66.6043 0.123598 66.992 0.185396 67.4078 0.264048C67.7057 0.320227 67.9192 0.584272 67.9192 0.882025V4.02247C67.9192 4.37079 68.2001 4.65169 68.5485 4.65169H72.8135C73.0327 4.65169 73.2462 4.76405 73.3586 4.95506C73.6058 5.38764 73.7969 5.85955 73.9317 6.37641C74.1003 7.01124 74.1846 7.64607 74.1846 8.27528C74.1846 8.87079 74.1003 9.5 73.9317 10.1742C73.7969 10.7135 73.6058 11.1966 73.3586 11.6236C73.2518 11.809 73.0439 11.9157 72.8247 11.9157H69.0767C68.7283 11.9157 68.4474 12.1966 68.4474 12.5449V14.5562C68.4474 15.3596 68.6103 15.9382 68.9363 16.2809C69.2622 16.6236 69.7229 16.7978 70.3186 16.7978H70.5771C70.8693 16.7978 71.1221 16.9944 71.1896 17.2753C71.2345 17.4831 71.2851 17.6966 71.3244 17.9157C71.3975 18.3146 71.4368 18.7079 71.4368 19.1067C71.4368 20.7303 70.9311 21.9663 69.914 22.8146C68.8969 23.6685 67.4528 24.0899 65.576 24.0899C64.632 24.0899 63.7722 23.9607 62.9968 23.7022C62.2213 23.4438 61.5526 23.0562 60.9963 22.5281C60.4344 22.0056 60.0074 21.3483 59.7039 20.5618C59.4005 19.7753 59.2488 18.8427 59.2488 17.7697V13.3427L59.2375 13.3483Z" fill="white"/>
<path d="M123.077 9.98873C122.892 9.98873 122.712 9.98873 122.538 9.99997C122.364 10.0056 122.206 10.0281 122.072 10.0674C121.937 10.1067 121.83 10.1685 121.746 10.2528C121.661 10.337 121.622 10.4494 121.622 10.6011V10.6966C121.622 10.7359 121.628 10.7696 121.639 10.7921C121.836 10.7809 122.004 10.7752 122.145 10.7752H122.566C123.15 10.7752 123.752 10.8202 124.37 10.9045C124.988 10.9943 125.584 11.1348 126.162 11.3314C126.741 11.5281 127.286 11.7921 127.798 12.1179C128.309 12.4438 128.758 12.8427 129.135 13.309C129.511 13.7752 129.815 14.3258 130.034 14.955C130.253 15.5842 130.365 16.3033 130.365 17.1067C130.365 18.3202 130.146 19.3764 129.708 20.2809C129.27 21.1854 128.652 21.9326 127.842 22.5281C127.039 23.1236 126.067 23.5674 124.937 23.8651C123.808 24.1629 122.544 24.309 121.156 24.309C119.874 24.309 118.7 24.1966 117.632 23.9775C116.565 23.7584 115.654 23.4213 114.896 22.9831C114.137 22.5393 113.547 21.9831 113.131 21.3146C112.71 20.646 112.502 19.8539 112.502 18.9438C112.502 18.6067 112.541 18.2809 112.626 17.9719C112.704 17.6629 112.811 17.382 112.94 17.1236C113.07 16.8651 113.216 16.6404 113.379 16.4494C113.542 16.2584 113.705 16.1067 113.868 16.0056C114.148 16.2415 114.514 16.4775 114.963 16.7135C115.413 16.955 115.924 17.1629 116.503 17.3539C117.082 17.5449 117.705 17.691 118.385 17.809C119.06 17.9269 119.779 17.9831 120.537 17.9831C120.886 17.9831 121.111 17.9382 121.212 17.8427C121.313 17.7472 121.358 17.6236 121.358 17.455C121.358 17.3595 121.341 17.2696 121.307 17.1741C121.178 17.1854 121.083 17.191 121.01 17.191H120.818C119.672 17.191 118.593 17.073 117.571 16.8427C116.548 16.6123 115.654 16.2415 114.885 15.7303C114.115 15.2247 113.502 14.5786 113.047 13.7977C112.592 13.0168 112.367 12.073 112.367 10.9663C112.367 10.0449 112.553 9.16851 112.929 8.33143C113.3 7.49997 113.868 6.76401 114.626 6.1348C115.385 5.50559 116.334 5.00559 117.481 4.62918C118.621 4.25839 119.964 4.06738 121.504 4.06738C122.263 4.06738 122.993 4.11233 123.69 4.1966C124.392 4.28648 125.044 4.40446 125.657 4.55615C126.269 4.70783 126.837 4.88761 127.354 5.08986C127.871 5.2921 128.326 5.50559 128.708 5.7303C128.826 5.9775 128.91 6.30334 128.961 6.70783C129.011 7.11794 129.039 7.49435 129.039 7.84266C129.039 8.64603 128.921 9.32019 128.691 9.8539C128.455 10.3932 128.185 10.809 127.871 11.1123C127.601 10.9606 127.292 10.8202 126.943 10.6854C126.595 10.5505 126.213 10.4326 125.797 10.3258C125.381 10.2191 124.943 10.1348 124.488 10.073C124.027 10.0112 123.555 9.9775 123.077 9.9775V9.98873Z" fill="white"/>
<path d="M132.299 13.2697C132.299 12.9607 132.546 12.7135 132.855 12.7135H133.383C133.686 12.7135 133.906 12.6629 134.046 12.5562C134.187 12.4494 134.254 12.309 134.254 12.1348C134.254 12.0674 134.243 11.9944 134.22 11.927H130.725C130.472 11.927 130.248 11.7641 130.191 11.5169C130.118 11.2079 130.056 10.882 130.012 10.5337C129.95 10.0281 129.916 9.51124 129.916 8.98315C129.916 8.64607 129.938 8.25843 129.978 7.82023C130.006 7.48877 130.051 7.20225 130.096 6.94944C130.124 6.80338 130.214 6.67978 130.337 6.60113C130.765 6.33147 131.186 6.04495 131.602 5.74158C132.018 5.43821 132.422 5.14045 132.771 4.88765C132.849 4.82585 132.911 4.75281 132.945 4.66293C133.035 4.43821 133.141 4.16293 133.254 3.83708C133.394 3.43821 133.535 3.0281 133.675 2.59551C133.816 2.16293 133.951 1.7472 134.08 1.3427C134.164 1.07866 134.243 0.842702 134.31 0.634837C134.372 0.443826 134.529 0.308994 134.726 0.269668C135.052 0.207871 135.44 0.146073 135.895 0.0955111C136.513 0.0280954 137.142 -0.0112305 137.783 -0.0112305C138.283 -0.0112305 138.789 0.0168594 139.294 0.0786572C139.677 0.123601 140.081 0.185399 140.514 0.269668C140.772 0.32023 140.963 0.550567 140.963 0.814612V4.08989C140.963 4.39888 141.211 4.64607 141.52 4.64607H143.677C143.874 4.64607 144.06 4.74158 144.155 4.91012C144.414 5.35394 144.61 5.83708 144.751 6.36517C144.919 7.00001 145.004 7.63484 145.004 8.26405C145.004 8.85956 144.919 9.48877 144.751 10.1629C144.61 10.7191 144.414 11.2135 144.155 11.6461C144.06 11.809 143.874 11.9045 143.683 11.9045H142.042C141.733 11.9045 141.486 12.1517 141.486 12.4607V14.5449C141.486 15.3483 141.649 15.927 141.975 16.2697C142.301 16.6124 142.762 16.7865 143.357 16.7865H143.677C143.93 16.7865 144.161 16.9551 144.217 17.2079C144.267 17.4326 144.318 17.6685 144.363 17.9101C144.436 18.309 144.475 18.7023 144.475 19.1011C144.475 20.7247 143.97 21.9607 142.953 22.809C141.935 23.6629 140.491 24.0843 138.615 24.0843C137.671 24.0843 136.811 23.9551 136.035 23.6966C135.26 23.4382 134.591 23.0506 134.035 22.5225C133.479 21.9944 133.046 21.3427 132.742 20.5562C132.439 19.7697 132.287 18.8371 132.287 17.7641V13.2641L132.299 13.2697Z" fill="white"/>
<path d="M35.4853 10.1685C35.0132 8.91569 34.3502 7.83704 33.4904 6.93255C32.6307 6.02805 31.6024 5.32581 30.3999 4.82581C29.1974 4.32581 27.8712 4.073 26.4102 4.073C24.9493 4.073 23.6231 4.30895 22.4206 4.77525C21.2181 5.24154 20.1842 5.91008 19.3244 6.78648C18.4647 7.66289 17.7904 8.71907 17.3128 9.96064C16.8351 11.2022 16.5935 12.5955 16.5935 14.1348C16.5935 15.837 16.852 17.3258 17.3633 18.5955C17.8747 19.8651 18.5715 20.9269 19.4537 21.7809C20.3359 22.6348 21.3698 23.2696 22.5667 23.6854C23.7636 24.1067 25.0448 24.3146 26.4046 24.3146C27.9331 24.3146 29.3041 24.0786 30.5179 23.6123C31.7316 23.146 32.7543 22.4775 33.5972 21.6123C34.4345 20.7415 35.0807 19.691 35.519 18.455C35.9629 17.2191 36.182 15.8314 36.182 14.2921C36.182 12.7528 35.946 11.4269 35.474 10.1741L35.4853 10.1685ZM27.2587 16.3539C27.2587 16.7191 27.2082 16.9831 27.1014 17.1685C27.0059 17.3314 26.8036 17.5337 26.3765 17.5337C26.1237 17.5337 25.927 17.4606 25.7809 17.3202L25.6854 17.2247V14.0337C25.6854 13.6516 25.6798 13.3314 25.6685 13.0618C25.6573 12.7921 25.646 12.5505 25.6348 12.3483C25.6236 12.1573 25.6067 11.9775 25.5842 11.8258C25.5617 11.6573 25.5393 11.4719 25.528 11.2752L25.5168 11.1348L25.6179 11.0337C25.6854 10.9663 25.764 10.9045 25.8596 10.8539C25.9719 10.7921 26.1068 10.764 26.2641 10.764C26.4496 10.764 26.6238 10.8258 26.7699 10.9382C26.916 11.0561 27.0227 11.2528 27.0958 11.5618C27.1576 11.8146 27.2026 12.1348 27.2194 12.5168C27.2363 12.882 27.2475 13.3314 27.2475 13.8595V16.3595L27.2587 16.3539Z" fill="white"/>
<path d="M111.103 10.1685C110.631 8.91569 109.968 7.83704 109.108 6.93255C108.248 6.02805 107.22 5.32581 106.018 4.82581C104.815 4.32581 103.489 4.073 102.028 4.073C100.567 4.073 99.2408 4.30895 98.0383 4.77525C96.8358 5.24154 95.8019 5.91008 94.9421 6.78648C94.0824 7.66289 93.4081 8.71907 92.9304 9.96064C92.4528 11.2022 92.2112 12.5955 92.2112 14.1348C92.2112 15.837 92.4697 17.3258 92.981 18.5955C93.4924 19.8651 94.1891 20.9269 95.0714 21.7809C95.9536 22.6348 96.9875 23.2696 98.1844 23.6854C99.3813 24.1067 100.662 24.3146 102.022 24.3146C103.551 24.3146 104.922 24.0786 106.136 23.6123C107.349 23.146 108.372 22.4775 109.215 21.6123C110.052 20.7415 110.698 19.691 111.137 18.455C111.581 17.2191 111.8 15.8314 111.8 14.2921C111.8 12.7528 111.564 11.4269 111.092 10.1741L111.103 10.1685ZM102.876 16.3539C102.876 16.7191 102.826 16.9831 102.719 17.1685C102.624 17.3314 102.421 17.5337 101.994 17.5337C101.741 17.5337 101.545 17.4606 101.399 17.3202L101.303 17.2247V14.0337C101.303 13.6516 101.297 13.3314 101.286 13.0618C101.275 12.7921 101.264 12.5505 101.252 12.3483C101.241 12.1573 101.224 11.9775 101.202 11.8258C101.179 11.6573 101.157 11.4719 101.146 11.2752L101.134 11.1348L101.236 11.0337C101.303 10.9663 101.382 10.9045 101.477 10.8539C101.59 10.7921 101.724 10.764 101.882 10.764C102.067 10.764 102.241 10.8258 102.388 10.9382C102.534 11.0561 102.64 11.2528 102.713 11.5618C102.775 11.8146 102.82 12.1348 102.837 12.5168C102.854 12.882 102.865 13.3314 102.865 13.8595V16.3595L102.876 16.3539Z" fill="white"/>
<path d="M91.059 10.3033C90.7556 9.2303 90.3566 8.3258 89.8678 7.58423C89.3789 6.84266 88.8226 6.24153 88.1989 5.78086C87.5751 5.32019 86.9402 4.96625 86.2996 4.71344C85.659 4.46064 85.0352 4.2921 84.434 4.20783C83.8327 4.11794 83.3045 4.07861 82.8494 4.07861C82.1133 4.07861 81.4446 4.14603 80.849 4.28086C80.2477 4.41569 79.7026 4.61794 79.2138 4.89322C78.7249 5.1685 78.281 5.50558 77.882 5.91007C77.483 6.31457 77.1178 6.78086 76.7806 7.32019C76.5446 7.32019 76.3873 7.26962 76.2974 7.16288C76.2075 7.05614 76.1682 6.93816 76.1682 6.79771C76.1682 6.64603 76.2075 6.49996 76.2918 6.35951C76.5109 5.98873 76.9492 5.56176 77.6011 5.08423C77.3313 4.94378 76.9998 4.83704 76.6065 4.76962C76.2075 4.70221 75.7692 4.66288 75.2747 4.66288H73.1619C72.9203 4.66288 72.7011 4.79771 72.5831 5.0112C72.4932 5.17974 72.4089 5.34828 72.3359 5.52805C72.2066 5.83704 72.0998 6.15726 72.0099 6.48311C71.92 6.80895 71.8582 7.12917 71.8189 7.44378C71.7796 7.75839 71.7571 8.05614 71.7571 8.33704C71.7571 9.0112 71.8414 9.66288 72.0099 10.2809C72.1617 10.8314 72.3864 11.3314 72.6786 11.7865C72.7461 11.8932 72.7854 12.0112 72.7854 12.1404V26.0281C72.7854 26.7528 72.9146 27.3651 73.1731 27.8651C73.4316 28.3651 73.7856 28.7752 74.2464 29.0955C74.7072 29.4157 75.2635 29.6516 75.9153 29.7977C76.5671 29.9438 77.292 30.0168 78.0843 30.0168C78.4327 30.0168 78.7923 29.9943 79.1576 29.955C79.5228 29.9157 79.8824 29.8539 80.2365 29.7809C80.5848 29.7022 80.9164 29.6179 81.2254 29.5168C81.3659 29.4719 81.4952 29.4269 81.6188 29.382C81.8716 29.2865 82.0402 29.0449 82.0402 28.7696V25.1685C82.0402 24.8258 81.7705 24.5393 81.4277 24.5168C81.0231 24.4887 80.6635 24.455 80.3488 24.4213C79.8881 24.3707 79.5172 24.3033 79.2306 24.2191C78.944 24.1348 78.7361 24.0337 78.6125 23.9157C78.4833 23.7921 78.4215 23.646 78.4215 23.4719C78.4215 23.3314 78.4608 23.2303 78.5451 23.1741C78.6406 23.2191 78.7698 23.2752 78.9497 23.3427C79.1239 23.4045 79.3599 23.4719 79.6521 23.5337C79.9443 23.5955 80.3039 23.6516 80.7366 23.7022C81.1692 23.7472 81.6918 23.7696 82.3099 23.7696C83.7428 23.7696 85.0296 23.5561 86.1703 23.1292C87.3054 22.7022 88.2719 22.0786 89.0642 21.2584C89.8565 20.4382 90.4634 19.4269 90.8848 18.2303C91.3063 17.0337 91.5142 15.6741 91.5142 14.146C91.5142 12.6179 91.3625 11.3876 91.059 10.3146V10.3033ZM83.0011 16.2921C83.0011 16.6573 82.9505 16.9213 82.8438 17.1067C82.7482 17.2696 82.5459 17.4719 82.1189 17.4719C81.866 17.4719 81.6694 17.3988 81.5233 17.2584L81.4277 17.1629V13.9719C81.4277 13.5898 81.4221 13.2696 81.4109 13C81.3996 12.7303 81.3884 12.4887 81.3772 12.2865C81.3659 12.0955 81.3491 11.9157 81.3266 11.764C81.3041 11.5955 81.2816 11.4101 81.2704 11.2134L81.2591 11.073L81.3603 10.9719C81.4277 10.9045 81.5064 10.8427 81.6019 10.7921C81.7143 10.7303 81.8492 10.7022 82.0065 10.7022C82.1919 10.7022 82.3661 10.764 82.5122 10.8764C82.6583 10.9943 82.7651 11.191 82.8381 11.5C82.9 11.7528 82.9449 12.073 82.9618 12.455C82.9786 12.8202 82.9899 13.2696 82.9899 13.7977V16.2977L83.0011 16.2921Z" fill="white"/>
<path d="M153.393 16.5112H149.347C148.46 16.5112 147.74 17.2306 147.74 18.118V22.1629C147.74 23.0503 148.46 23.7697 149.347 23.7697H153.393C154.28 23.7697 155 23.0503 155 22.1629V18.118C155 17.2306 154.28 16.5112 153.393 16.5112Z" fill="white"/>
<path d="M24.9043 21.3651C23.786 21.0673 24.0333 19.7134 23.3421 19.0392C22.7971 18.5224 21.8362 18.6516 21.3529 18.0505C20.8472 17.4887 20.9371 16.5392 21.5384 16.0842C22.061 15.6628 22.8982 15.7359 23.3758 15.2359C23.9659 14.6741 23.8872 13.6291 23.2185 13.1628C22.7465 12.8145 22.1003 12.837 21.6227 12.5112C20.8472 12.0392 21.072 10.8819 20.3921 10.337C19.5379 9.57295 18.3972 10.4156 17.633 10.8539C17.1498 11.0898 16.8801 10.764 17.1273 10.3033C17.5206 9.61228 18.2849 8.6516 17.7791 7.80891C17.3464 7.00554 16.1158 6.89318 15.5371 7.60104C15.1718 8.01677 15.1606 8.61228 14.9189 9.08981C14.52 9.98868 13.1826 10.1291 12.5926 9.34823C11.9689 8.60666 12.3791 7.3988 13.3175 7.15722C13.7558 7.01116 14.2503 6.98307 14.6155 6.67408C15.1044 6.26958 15.2055 5.45498 14.9527 4.86509C14.4863 3.87632 13.132 4.22464 12.2217 4.15161C11.1822 4.15722 10.2606 4.10104 9.82795 4.4325C9.36718 4.76958 9.37842 5.39318 9.22108 5.8988C8.97384 7.14037 7.44541 6.82576 6.77673 7.62913C6.25414 8.26396 6.48453 9.33138 7.16445 9.69655C8.04667 10.0505 9.15927 10.101 9.2267 11.3201C9.20984 12.719 8.00733 12.6404 7.08017 13.101C6.31595 13.5842 6.31595 14.9437 7.08017 15.4213C7.59713 15.764 8.33325 15.6797 8.7884 16.1404C9.41775 16.7415 9.24918 17.8988 10.0864 18.3314C10.6708 18.6797 11.4969 18.5112 11.8902 17.9606C12.2948 17.4156 12.2161 16.6067 12.7499 16.1404C13.2332 15.6853 14.0367 15.6572 14.5537 16.073C15.0875 16.4831 15.1381 17.2527 15.4303 17.8426C15.6045 18.3482 16.099 18.7808 16.1552 19.3033C16.0821 19.8426 15.464 19.4887 15.1269 19.2527C14.4413 18.8033 13.4018 18.3426 12.7218 19.0617C12.1936 19.5561 12.306 20.4494 11.8059 20.9662C11.3845 21.4269 10.6427 21.5392 10.1033 21.219C9.54137 20.9213 9.41775 20.2864 9.2267 19.7246C8.98507 18.8482 7.97362 18.3595 7.18131 18.8201C6.32157 19.2752 6.2429 20.7977 7.18693 21.2527C8.62545 21.7246 9.23232 21.7864 9.41213 23.4774C9.51328 24.2696 10.2438 24.3988 10.9237 24.3707C12.4858 24.3707 15.3235 24.3819 16.7283 24.3651C18.3523 24.41 17.7173 23.1291 18.4309 22.073C18.9592 21.3763 20.1223 21.3988 20.6224 22.1123C21.027 22.6348 20.9203 23.4381 21.2574 23.8988L21.2855 23.9325C21.898 24.5786 22.9713 24.3089 23.7917 24.3707C24.6907 24.3595 25.9719 24.4437 26.3428 24.028C26.9103 23.4943 26.8541 22.3651 26.1911 21.8482C25.8314 21.5561 25.3482 21.5055 24.9211 21.3482L24.9043 21.3651Z" fill="white"/>
<path d="M5.10216 9.98876C5.03473 10.1685 5.0853 10.5506 5.06844 10.7809C5.06844 11.0506 5.05158 11.2416 5.11901 11.3034C5.17521 11.3652 5.32692 11.3539 5.55731 11.3539C5.82703 11.3315 6.21476 11.4101 6.43391 11.3034C6.51819 11.1854 6.47324 10.9607 6.48448 10.7809C6.47324 10.5618 6.51819 10.0618 6.43391 9.98876C6.38333 9.91011 6.00123 9.94382 5.82141 9.9382C5.62474 9.94944 5.26511 9.90449 5.11901 9.97191L5.10216 9.98876ZM3.0062 15.0843C2.89381 15.3034 2.96686 15.7921 2.95 16.1124C2.95 16.3876 2.93315 16.6742 2.96686 16.9157C2.98372 17.0169 3.02867 17.073 3.1242 17.1011C3.26468 17.1404 3.54564 17.1236 3.87717 17.1292C4.32671 17.0955 4.68072 17.2135 4.99539 17.0506C5.05158 16.9888 5.06282 16.9045 5.06844 16.8146C5.06844 16.3933 5.10216 15.5506 5.04596 15.1798C5.01787 15.0843 4.96168 15.0449 4.86053 15.0225C4.62452 14.9888 4.33795 15.0112 4.05699 15.0056C3.73669 15.0281 3.24782 14.9494 3.02867 15.0618L3.0062 15.0843ZM3.68612 20.0674C3.62431 20.2978 3.64116 21.2303 3.68612 21.3539C3.73107 21.4551 3.92774 21.427 4.23118 21.4326C4.47281 21.4101 4.82682 21.4888 5.02349 21.382C5.10778 21.264 5.06282 21.0393 5.07406 20.8595C5.06844 20.5281 5.09654 20.191 5.04035 20.0955C4.99539 19.9944 4.79872 20.0225 4.49528 20.0169C4.27051 20.0337 3.88279 19.9831 3.70298 20.0506L3.68612 20.0674ZM1.135 18.2528C1.10129 18.382 1.12938 18.618 1.11814 18.7584C1.11814 18.8652 1.14062 18.9101 1.22491 18.9213C1.33729 18.9213 1.68006 18.9607 1.78683 18.8933C1.8374 18.8427 1.84302 18.3315 1.78683 18.2528C1.68006 18.2022 1.5452 18.2247 1.4272 18.2191C1.35415 18.2191 1.20243 18.2079 1.14624 18.236L1.12938 18.2528H1.135ZM2.90505 7.08427C2.87133 7.21348 2.89943 7.44944 2.88819 7.58989C2.88819 7.69663 2.91067 7.74157 2.99496 7.75281C3.10734 7.75281 3.45011 7.79213 3.55688 7.72472C3.60745 7.67415 3.61307 7.16292 3.55688 7.08427C3.45011 7.03371 3.31525 7.05618 3.19725 7.05056C3.1242 7.05056 2.97248 7.03932 2.91629 7.06741L2.89943 7.08427H2.90505ZM0.0167811 15.0393C-0.0169341 15.1685 0.0111619 15.4045 -7.64784e-05 15.5449C-7.64784e-05 15.6517 0.0224003 15.6966 0.106688 15.7079C0.219072 15.7079 0.561844 15.7472 0.668608 15.6798C0.719181 15.6292 0.7248 15.118 0.668608 15.0393C0.561844 14.9888 0.426983 15.0112 0.308979 15.0056C0.23593 15.0056 0.0842115 14.9944 0.0280195 15.0225L0.0111619 15.0393H0.0167811ZM2.21389 11.4326C2.15208 11.6629 2.16893 12.5955 2.21389 12.7191C2.25884 12.8202 2.45551 12.7921 2.75895 12.7978C3.00058 12.7753 3.35459 12.8539 3.55126 12.7472C3.63555 12.6292 3.59059 12.4045 3.60183 12.2247C3.59059 12.0056 3.63555 11.5056 3.55126 11.4326C3.50068 11.3539 3.1242 11.3876 2.93876 11.382C2.74209 11.3933 2.38246 11.3483 2.23636 11.4157L2.21951 11.4326H2.21389Z" fill="white"/>
</g>
<path d="M185.385 3.30373C185.385 3.11804 185.393 2.93236 185.416 2.75441C185.447 2.49135 185.501 2.23603 185.578 1.98071H172.843C170.166 1.98845 168 4.15479 168 6.83178V24.0001H185.168C187.845 24.0001 190.012 21.8337 190.012 19.1567V7.93042C187.458 7.93042 185.385 5.85692 185.385 3.30373ZM189.238 19.149C189.238 21.4004 187.412 23.2186 185.168 23.2186H168.774V6.83178C168.774 4.58033 170.592 2.75441 172.843 2.75441H184.642C184.627 2.93236 184.611 3.11804 184.611 3.30373C184.611 6.0194 186.623 8.27085 189.23 8.64222V19.149H189.238Z" fill="white"/>
<path d="M190.004 6.60735C191.828 6.60735 193.308 5.12824 193.308 3.30367C193.308 1.47911 191.828 0 190.004 0C188.179 0 186.7 1.47911 186.7 3.30367C186.7 5.12824 188.179 6.60735 190.004 6.60735Z" fill="#FF32A1"/>
<path d="M171.118 17.2223C171.056 17.3616 171.079 17.4776 171.095 17.5163V17.5241C171.126 17.702 171.25 18.0966 171.52 18.3983C171.52 18.4138 171.52 18.4293 171.52 18.4525C171.52 18.5299 171.513 18.6382 171.513 18.7001L171.505 18.9322H177.323C177.354 18.9399 177.385 18.9399 177.416 18.9399C177.462 18.9399 177.501 18.9399 177.547 18.9322H178.793L178.785 18.7001C178.785 18.6537 178.778 18.5763 178.778 18.5067L178.824 18.4912H178.778C178.778 18.4757 178.778 18.468 178.778 18.4525C178.778 18.4293 178.778 18.4138 178.778 18.3983C179.048 18.0966 179.172 17.702 179.203 17.5241V17.5163C179.211 17.4699 179.242 17.3616 179.18 17.2223C179.103 17.0599 178.971 16.967 178.878 16.9051C178.77 16.8277 178.654 16.7736 178.576 16.7504C177.942 16.4641 177.563 16.2552 177.346 16.1159C177.238 16.0463 177.168 15.9999 177.137 15.9689C177.122 15.9612 177.114 15.9535 177.106 15.9457L177.099 15.938C176.797 15.6285 176.549 15.1024 176.371 14.5376C176.201 13.9883 176.101 13.4312 176.054 13.0831V12.9438V12.9283C176.046 12.8742 176.07 12.7813 176.139 12.6653C176.209 12.557 176.294 12.4564 176.348 12.4022C176.449 12.3094 176.619 12.2088 176.812 12.1005C177.068 11.9999 177.246 11.9148 177.362 11.8452C177.424 11.8142 177.47 11.7755 177.501 11.7446C177.516 11.7291 177.54 11.7136 177.555 11.6904C177.571 11.6749 177.594 11.644 177.602 11.6053C177.625 11.5434 177.625 11.4583 177.609 11.3655L177.602 11.3268L177.578 11.2958C177.486 11.1411 177.331 11.0947 177.238 11.0947C176.828 11.0715 176.557 11.025 176.371 10.9786C176.317 10.9631 176.271 10.9554 176.24 10.9399C176.487 10.8007 176.681 10.6072 176.82 10.4138C177.006 10.1662 177.122 9.91092 177.176 9.74844V9.7407V9.73297C177.377 8.78132 177.091 8.11594 176.627 7.68268C176.178 7.26488 175.598 7.06372 175.133 7.06372C174.662 7.06372 174.097 7.27262 173.648 7.68268C173.184 8.11594 172.898 8.78132 173.099 9.73297V9.7407V9.74844C173.153 9.91865 173.269 10.174 173.455 10.4138C173.602 10.6072 173.795 10.8007 174.035 10.9399C173.996 10.9554 173.957 10.9631 173.903 10.9786C173.718 11.025 173.447 11.0637 173.037 11.0947C172.944 11.0947 172.789 11.1411 172.696 11.2958L172.673 11.3268L172.665 11.3655C172.65 11.4506 172.65 11.5357 172.673 11.6053C172.689 11.644 172.712 11.6749 172.72 11.6904C172.735 11.7136 172.758 11.7291 172.774 11.7446C172.812 11.7755 172.859 11.8065 172.913 11.8452C173.029 11.9148 173.199 11.9999 173.455 12.1005C173.64 12.2088 173.818 12.3094 173.919 12.4022C173.973 12.4564 174.066 12.557 174.128 12.6653C174.197 12.7813 174.221 12.8742 174.213 12.9283V12.9438V13.0831C174.174 13.4312 174.074 13.9805 173.896 14.5376C173.718 15.1024 173.478 15.6363 173.168 15.938L173.161 15.9457C173.153 15.9535 173.145 15.9612 173.13 15.9689C173.091 15.9999 173.029 16.0463 172.921 16.1159C172.704 16.2552 172.325 16.4641 171.691 16.7504C171.613 16.7813 171.497 16.8355 171.389 16.9051C171.327 16.967 171.195 17.0599 171.118 17.2223Z" fill="white"/>
<path d="M180.379 16.4333L180.642 13.5164L182.963 18.3675C182.986 18.4062 183.01 18.4604 183.033 18.5222C183.064 18.5919 183.103 18.6538 183.149 18.7157C183.195 18.7776 183.25 18.8317 183.319 18.8704C183.389 18.9168 183.466 18.94 183.559 18.94C183.605 18.94 183.652 18.9323 183.706 18.9168C183.76 18.9091 183.822 18.8859 183.884 18.8472C184.124 18.7157 184.333 18.6074 184.526 18.5145C184.72 18.4217 184.89 18.3443 185.052 18.2747C185.207 18.205 185.354 18.1354 185.486 18.0812C185.617 18.0271 185.749 17.9652 185.872 17.9033C185.934 17.8723 186.019 17.8337 186.135 17.7795C186.251 17.7253 186.375 17.6712 186.484 17.617C186.6 17.5629 186.7 17.5087 186.778 17.4545C186.863 17.4004 186.909 17.3462 186.909 17.3075C186.909 17.2534 186.878 17.2224 186.809 17.2147C186.739 17.207 186.662 17.1992 186.561 17.1992C186.46 17.1915 186.352 17.1838 186.244 17.1683C186.128 17.1451 186.027 17.0986 185.942 17.0213C185.671 16.6267 185.431 16.2553 185.222 15.9072C185.014 15.559 184.828 15.2495 184.665 14.971C184.511 14.6847 184.371 14.4449 184.263 14.236C184.147 14.0271 184.046 13.8646 183.969 13.7408C183.892 13.6015 183.83 13.4932 183.776 13.4159C183.729 13.3308 183.691 13.2689 183.667 13.2302C183.644 13.1838 183.621 13.1528 183.613 13.1373C183.605 13.1219 183.605 13.1064 183.605 13.0986C183.66 13.0754 183.752 13.0368 183.899 12.9671C184.046 12.8975 184.209 12.7969 184.395 12.6809C184.588 12.5648 184.789 12.4178 184.998 12.2553C185.207 12.0851 185.393 11.8917 185.571 11.6751C185.749 11.4507 185.888 11.2031 185.996 10.9323C186.112 10.6615 186.166 10.3598 186.166 10.0348C186.166 9.44681 186.043 8.96712 185.803 8.58027C185.563 8.19343 185.246 7.89168 184.843 7.66731C184.449 7.44294 183.992 7.28047 183.482 7.18762C182.971 7.08704 182.445 7.03288 181.903 7.02515C181.424 7.02515 180.975 7.04062 180.549 7.07931C180.124 7.11025 179.721 7.14894 179.342 7.2031C178.986 7.24952 178.646 7.30368 178.329 7.36557C178.7 7.79884 178.894 8.41006 178.723 9.25339V9.26112V9.26886C178.669 9.43907 178.553 9.69439 178.368 9.93424C178.221 10.1277 178.027 10.3211 177.787 10.4604C177.826 10.4758 177.865 10.4836 177.919 10.499C178.104 10.5455 178.375 10.5841 178.785 10.6151C178.878 10.6151 179.033 10.6615 179.126 10.8162L179.149 10.8472L179.157 10.8859C179.172 10.971 179.172 11.0561 179.149 11.1257C179.133 11.1644 179.11 11.1954 179.103 11.2108C179.087 11.234 179.064 11.2495 179.048 11.265C179.01 11.2959 178.963 11.3269 178.909 11.3656C178.793 11.4352 178.623 11.5203 178.36 11.6209C178.174 11.7292 177.996 11.8298 177.896 11.9226C177.841 11.9768 177.749 12.0774 177.687 12.1857C177.648 12.2476 177.625 12.3017 177.609 12.3482L177.602 12.4642V12.6035C177.64 12.9516 177.741 13.501 177.919 14.058C178.097 14.6228 178.337 15.1567 178.646 15.4584L178.654 15.4662C178.662 15.4739 178.669 15.4816 178.685 15.4894C178.723 15.5203 178.785 15.5667 178.894 15.6364C179.11 15.7756 179.489 15.9845 180.124 16.2708C180.186 16.3327 180.286 16.3791 180.379 16.4333ZM181.563 12.3636C181.277 12.4952 180.998 12.5648 180.735 12.5648L181.045 9.28433C181.137 9.2766 181.246 9.26112 181.354 9.23791C181.47 9.2147 181.609 9.19923 181.78 9.19923C182.685 9.19923 183.133 9.5706 183.133 10.3211C183.133 10.5919 183.056 10.8627 182.909 11.1335C182.762 11.4043 182.569 11.6441 182.329 11.853C182.104 12.0619 181.849 12.2321 181.563 12.3636Z" fill="white"/>
<defs>
<clipPath id="clip0_0_1">
<rect width="155" height="30" fill="white"/>
</clipPath>
</defs>
</svg>

