<svg id="Layer_1" data-name="Layer 1" xmlns="http://www.w3.org/2000/svg" viewBox="0 0 603.4 202.57"><defs><style>.cls-1{fill:#c2a383;}</style></defs><title>outpost_logo</title><path class="cls-1" d="M233.7,101.93c0,17.62-12,31.88-31.88,31.88s-31.76-14.27-31.76-31.88,12.16-31.88,31.63-31.88S233.7,84.44,233.7,101.93Zm-48.51,0c0,9.3,5.58,18,16.62,18s16.62-8.68,16.62-18S212,83.82,201.82,83.82C190.91,83.82,185.2,92.75,185.2,101.93Z"/><path class="cls-1" d="M257.15,71.29v32c0,9.3,5.09,16.37,14.76,16.37,9.3,0,15.63-7.81,15.63-17.12V71.29h15v61.28H289l-1-8.31c-6.33,6.2-12.16,9.18-20.72,9.18-14.64,0-25.31-11-25.31-30V71.29Z"/><path class="cls-1" d="M334.81,54V71.41h26.41v13H334.69v26.42c0,5.83,3.23,8.68,7.94,8.68a17.31,17.31,0,0,0,7.32-1.86l4.22,12.9a33.8,33.8,0,0,1-12.53,2.6c-13.27.5-22-7.07-22-22.33V84.44H308.27v-13h11.41V55.66Z"/><path class="cls-1" d="M360.49,158V71.29h14.14l1,8.43c4.71-6.82,12.9-9.8,19.85-9.8,18.86,0,31.39,14,31.39,32s-11.29,32-30.89,32c-6.45,0-16-2-20.34-8.68v30.09Zm51.23-56.07c0-9.55-6.45-17.37-17.37-17.37S377,92.38,377,101.93a17.37,17.37,0,1,0,34.74,0Z"/><path class="cls-1" d="M496.33,101.93c0,17.62-12,31.88-31.88,31.88s-31.76-14.27-31.76-31.88,12.16-31.88,31.63-31.88S496.33,84.44,496.33,101.93Zm-48.51,0c0,9.3,5.58,18,16.62,18s16.62-8.68,16.62-18-6.45-18.11-16.62-18.11C453.54,83.82,447.83,92.75,447.83,101.93Z"/><path class="cls-1" d="M544.22,87.54c-4.34-4.09-9.31-5.46-15.13-5.46-7.2,0-11.17,2.23-11.17,6.08s3.6,6.2,11.41,6.7c11.54.74,26.18,3.35,26.18,19.6,0,10.79-8.81,20.1-26.3,20.1-9.68,0-19.35-1.61-28.28-10.92l7.44-10.79c4.34,4.84,14.27,8.43,21.09,8.56,5.71.12,11-2.85,11-7.32,0-4.22-3.47-6-12.16-6.45-11.54-.87-25.31-5.09-25.31-19,0-14.14,14.64-19.11,25.8-19.11,9.55,0,16.75,1.86,23.82,8.06Z"/><path class="cls-1" d="M584,54V71.41h16.87v13h-17v26.42c0,5.83,3.23,8.68,7.94,8.68a17.31,17.31,0,0,0,7.32-1.86l4.22,12.9a33.8,33.8,0,0,1-12.53,2.6c-13.27.5-22-7.07-22-22.33V84.44H557.5v-13h11.41V55.66Z"/><path class="cls-1" d="M88,57.21H70.35V39.58H88ZM52.89,39.58H35.26V57.21H52.89Zm43.9-8.64H88.15v8.64h8.64ZM65.85,18h-13v13h13ZM35.26,22.3H26.62v8.64h8.64ZM48.4,4.67H39.75v8.64H48.4Zm61.71,13h-4.32V22h4.32ZM65.85,0H61.53V4.32h4.32ZM88,13.31H79.34V22H88ZM35.26,171.64H43.9V163H35.26Zm30.94,13h13v-13h-13Zm30.59-4.32h8.64v-8.64H96.79Zm-11,15.47h4.32v-4.32H85.82Zm-68.19-10.8H22v-4.32H17.63ZM66.2,202.57h4.32v-4.32H66.2ZM44.08,189.27h8.64v-8.64H44.08ZM17.63,57.21V39.58H0V92.47H17.63V74.84H35.26V57.21ZM123.46,74.84V39.58H105.78V57.21H88.15V74.84H70.52V57.21H52.89V74.84H35.26V92.47H43.9v8.64H35.26V92.47H17.68V110.1H35.31v17.63H17.68V110.1H0v35.26H17.63V163H35.26V145.36H52.89V163H70.52V145.36H88.15V127.73H70.52V110.1H88.15v-8.64h8.64v8.64H88.15v17.63h17.63v17.63H88.15V163h17.68V145.36h17.63V92.47H105.83V74.84Z"/></svg>